<?xml version="1.0" encoding="UTF-8" standalone="no"?>
<!-- Created with Inkscape (http://www.inkscape.org/) -->

<svg
   xmlns:dc="http://purl.org/dc/elements/1.1/"
   xmlns:cc="http://creativecommons.org/ns#"
   xmlns:rdf="http://www.w3.org/1999/02/22-rdf-syntax-ns#"
   xmlns:svg="http://www.w3.org/2000/svg"
   xmlns="http://www.w3.org/2000/svg"
   xmlns:xlink="http://www.w3.org/1999/xlink"
   xmlns:sodipodi="http://sodipodi.sourceforge.net/DTD/sodipodi-0.dtd"
   xmlns:inkscape="http://www.inkscape.org/namespaces/inkscape"
   width="744.09448819"
   height="1052.3622047"
   id="svg2"
   inkscape:label="Pozadí"
   version="1.1"
   inkscape:version="0.48.1 r9760"
   sodipodi:docname="esmska2.svg">
  <defs
     id="defs3">
    <linearGradient
       inkscape:collect="always"
       id="linearGradient4175">
      <stop
         style="stop-color:#ffffff;stop-opacity:1;"
         offset="0"
         id="stop4177" />
      <stop
         style="stop-color:#ffffff;stop-opacity:0;"
         offset="1"
         id="stop4179" />
    </linearGradient>
    <linearGradient
       inkscape:collect="always"
       id="linearGradient4101">
      <stop
         style="stop-color:#d45500;stop-opacity:1;"
         offset="0"
         id="stop4103" />
      <stop
         style="stop-color:#d45500;stop-opacity:0;"
         offset="1"
         id="stop4105" />
    </linearGradient>
    <linearGradient
       inkscape:collect="always"
       id="linearGradient3908">
      <stop
         style="stop-color:#fff6d5;stop-opacity:1;"
         offset="0"
         id="stop3910" />
      <stop
         style="stop-color:#fff6d5;stop-opacity:0;"
         offset="1"
         id="stop3912" />
    </linearGradient>
    <linearGradient
       inkscape:collect="always"
       id="linearGradient3868">
      <stop
         style="stop-color:#6c6753;stop-opacity:1;"
         offset="0"
         id="stop3870" />
      <stop
         style="stop-color:#6c6753;stop-opacity:0;"
         offset="1"
         id="stop3872" />
    </linearGradient>
    <linearGradient
       id="linearGradient3860">
      <stop
         style="stop-color:#deb821;stop-opacity:1;"
         offset="0"
         id="stop3862" />
      <stop
         style="stop-color:#ffdb4d;stop-opacity:1;"
         offset="1"
         id="stop3864" />
    </linearGradient>
    <linearGradient
       id="linearGradient3844">
      <stop
         style="stop-color:#88aa00;stop-opacity:1;"
         offset="0"
         id="stop3846" />
      <stop
         style="stop-color:#a2cb00;stop-opacity:1;"
         offset="1"
         id="stop3848" />
    </linearGradient>
    <linearGradient
       id="linearGradient3823">
      <stop
         style="stop-color:#fff6d5;stop-opacity:1;"
         offset="0"
         id="stop3825" />
      <stop
         style="stop-color:#ffffff;stop-opacity:1;"
         offset="1"
         id="stop3827" />
    </linearGradient>
    <linearGradient
       inkscape:collect="always"
       xlink:href="#linearGradient3844"
       id="linearGradient3981"
       gradientUnits="userSpaceOnUse"
       x1="156.5248"
       y1="349.31342"
       x2="378.98529"
       y2="349.31342" />
    <linearGradient
       inkscape:collect="always"
       xlink:href="#linearGradient3860"
       id="linearGradient3983"
       gradientUnits="userSpaceOnUse"
       x1="101.92941"
       y1="247.28851"
       x2="276.81769"
       y2="644.34198" />
    <radialGradient
       inkscape:collect="always"
       xlink:href="#linearGradient3908"
       id="radialGradient3985"
       gradientUnits="userSpaceOnUse"
       cx="146.06693"
       cy="542.06665"
       fx="146.06693"
       fy="542.06665"
       r="80.731079" />
    <linearGradient
       inkscape:collect="always"
       xlink:href="#linearGradient3823"
       id="linearGradient3987"
       gradientUnits="userSpaceOnUse"
       x1="-344.80661"
       y1="198.87033"
       x2="-312.4614"
       y2="428.84183" />
    <linearGradient
       inkscape:collect="always"
       xlink:href="#linearGradient3868"
       id="linearGradient3989"
       gradientUnits="userSpaceOnUse"
       x1="174.37871"
       y1="380.7229"
       x2="286.8811"
       y2="624.85309" />
    <linearGradient
       inkscape:collect="always"
       xlink:href="#linearGradient3844"
       id="linearGradient3991"
       gradientUnits="userSpaceOnUse"
       x1="156.5248"
       y1="349.31342"
       x2="378.98529"
       y2="349.31342" />
    <linearGradient
       inkscape:collect="always"
       xlink:href="#linearGradient3860"
       id="linearGradient3993"
       gradientUnits="userSpaceOnUse"
       x1="101.92941"
       y1="247.28851"
       x2="276.81769"
       y2="644.34198" />
    <radialGradient
       inkscape:collect="always"
       xlink:href="#linearGradient3908"
       id="radialGradient3995"
       gradientUnits="userSpaceOnUse"
       cx="146.06693"
       cy="542.06665"
       fx="146.06693"
       fy="542.06665"
       r="80.731079" />
    <linearGradient
       inkscape:collect="always"
       xlink:href="#linearGradient3823"
       id="linearGradient3997"
       gradientUnits="userSpaceOnUse"
       x1="-344.80661"
       y1="198.87033"
       x2="-312.4614"
       y2="428.84183" />
    <linearGradient
       inkscape:collect="always"
       xlink:href="#linearGradient3868"
       id="linearGradient3999"
       gradientUnits="userSpaceOnUse"
       x1="174.37871"
       y1="380.7229"
       x2="286.8811"
       y2="624.85309" />
    <linearGradient
       inkscape:collect="always"
       xlink:href="#linearGradient3844"
       id="linearGradient4066"
       gradientUnits="userSpaceOnUse"
       x1="156.5248"
       y1="349.31342"
       x2="378.98529"
       y2="349.31342" />
    <linearGradient
       inkscape:collect="always"
       xlink:href="#linearGradient3860"
       id="linearGradient4068"
       gradientUnits="userSpaceOnUse"
       x1="101.92941"
       y1="247.28851"
       x2="276.81769"
       y2="644.34198" />
    <radialGradient
       inkscape:collect="always"
       xlink:href="#linearGradient3908"
       id="radialGradient4070"
       gradientUnits="userSpaceOnUse"
       cx="146.06693"
       cy="542.06665"
       fx="146.06693"
       fy="542.06665"
       r="80.731079" />
    <linearGradient
       inkscape:collect="always"
       xlink:href="#linearGradient3823"
       id="linearGradient4072"
       gradientUnits="userSpaceOnUse"
       x1="-344.80661"
       y1="198.87033"
       x2="-312.4614"
       y2="428.84183" />
    <linearGradient
       inkscape:collect="always"
       xlink:href="#linearGradient3868"
       id="linearGradient4074"
       gradientUnits="userSpaceOnUse"
       x1="174.37871"
       y1="380.7229"
       x2="286.8811"
       y2="624.85309" />
    <linearGradient
       inkscape:collect="always"
       xlink:href="#linearGradient4101"
       id="linearGradient4107"
       x1="331.48706"
       y1="140.74179"
       x2="38.154305"
       y2="140.74179"
       gradientUnits="userSpaceOnUse" />
    <linearGradient
       inkscape:collect="always"
       xlink:href="#linearGradient3823-0"
       id="linearGradient3997-8"
       gradientUnits="userSpaceOnUse"
       x1="-344.80661"
       y1="198.87033"
       x2="-312.4614"
       y2="428.84183" />
    <linearGradient
       id="linearGradient3823-0">
      <stop
         style="stop-color:#fff6d5;stop-opacity:1;"
         offset="0"
         id="stop3825-5" />
      <stop
         style="stop-color:#ffffff;stop-opacity:1;"
         offset="1"
         id="stop3827-2" />
    </linearGradient>
    <radialGradient
       inkscape:collect="always"
       xlink:href="#linearGradient4175"
       id="radialGradient4181"
       cx="262"
       cy="216.36218"
       fx="262"
       fy="216.36218"
       r="72"
       gradientUnits="userSpaceOnUse" />
    <radialGradient
       inkscape:collect="always"
       xlink:href="#linearGradient4175"
       id="radialGradient4185"
       gradientUnits="userSpaceOnUse"
       cx="262"
       cy="216.36218"
       fx="262"
       fy="216.36218"
       r="72" />
    <linearGradient
       inkscape:collect="always"
       xlink:href="#linearGradient4101"
       id="linearGradient4219"
       gradientUnits="userSpaceOnUse"
       x1="331.48706"
       y1="140.74179"
       x2="38.154305"
       y2="140.74179" />
    <linearGradient
       inkscape:collect="always"
       xlink:href="#linearGradient4101"
       id="linearGradient4221"
       gradientUnits="userSpaceOnUse"
       x1="331.48706"
       y1="140.74179"
       x2="38.154305"
       y2="140.74179"
       gradientTransform="matrix(0.2867939,0,0,0.28496706,337.98504,169.25541)" />
    <linearGradient
       inkscape:collect="always"
       xlink:href="#linearGradient4101"
       id="linearGradient4226"
       gradientUnits="userSpaceOnUse"
       gradientTransform="matrix(0.2867939,0,0,0.28496706,337.98504,169.25541)"
       x1="331.48706"
       y1="140.74179"
       x2="38.154305"
       y2="140.74179" />
    <radialGradient
       inkscape:collect="always"
       xlink:href="#linearGradient4175"
       id="radialGradient4231"
       gradientUnits="userSpaceOnUse"
       cx="262"
       cy="216.36218"
       fx="262"
       fy="216.36218"
       r="72" />
  </defs>
  <sodipodi:namedview
     id="base"
     pagecolor="#ffffff"
     bordercolor="#666666"
     borderopacity="1.0"
     inkscape:pageopacity="0.0"
     inkscape:pageshadow="2"
     inkscape:zoom="1"
     inkscape:cx="436"
     inkscape:cy="765.5"
     inkscape:document-units="px"
     inkscape:current-layer="layer1"
     showgrid="false"
     inkscape:window-width="1100"
     inkscape:window-height="722"
     inkscape:window-x="0"
     inkscape:window-y="0"
     inkscape:window-maximized="0" />
  <metadata
     id="metadata6">
    <rdf:RDF>
      <cc:Work
         rdf:about="">
        <dc:format>image/svg+xml</dc:format>
        <dc:type
           rdf:resource="http://purl.org/dc/dcmitype/StillImage" />
        <dc:title></dc:title>
      </cc:Work>
    </rdf:RDF>
  </metadata>
  <g
     inkscape:label="Vrstva 1"
     inkscape:groupmode="layer"
     id="layer1">
    <g
       id="g3935"
       transform="matrix(0.17859416,0,0,0.17859416,116.10167,363.98964)">
      <path
         d="m 182.84375,312.0625 c -22.22638,0 -40.28125,18.09271 -40.28125,40.3125 l 0,305.6875 c 0,22.21979 18.05487,40.3125 40.28125,40.3125 l 165.71875,0 c 22.22638,0 40.28125,-18.09271 40.28125,-40.3125 l 0,-305.6875 c 0,-22.21979 -18.05487,-40.3125 -40.28125,-40.3125 l -165.71875,0 z"
         id="path3856"
         style="fill:#6c6753;fill-opacity:1;fill-rule:evenodd;stroke:none"
         inkscape:original="M 182.84375 318.0625 C 163.84946 318.0625 148.5625 333.38071 148.5625 352.375 L 148.5625 658.0625 C 148.5625 677.05679 163.84946 692.375 182.84375 692.375 L 348.5625 692.375 C 367.55679 692.375 382.84375 677.05679 382.84375 658.0625 L 382.84375 352.375 C 382.84375 333.38071 367.55679 318.0625 348.5625 318.0625 L 182.84375 318.0625 z "
         inkscape:radius="6.0115986"
         sodipodi:type="inkscape:offset" />
      <rect
         rx="34.285725"
         ry="34.285725"
         y="318.07648"
         x="148.57143"
         height="374.28571"
         width="234.28572"
         id="rect2984"
         style="fill:url(#linearGradient3991);fill-opacity:1;fill-rule:evenodd;stroke:none" />
      <path
         d="M 257.71875,337.625 C 250.82522,337.625 245,343.3227 245,350.25 c 0,6.9273 5.82522,12.625 12.71875,12.625 l 16,0 c 6.89353,0 12.71875,-5.6977 12.71875,-12.625 0,-6.9273 -5.82522,-12.625 -12.71875,-12.625 l -16,0 z m 8,299.09375 c -13.37104,0 -24.34375,10.97271 -24.34375,24.34375 0,13.37104 10.96021,24.375 24.34375,24.375 13.38354,0 24.34375,-11.00396 24.34375,-24.375 0,-13.37104 -10.97271,-24.34375 -24.34375,-24.34375 z"
         id="path3842"
         style="opacity:0.3;fill:#445500;fill-rule:evenodd;stroke:none"
         inkscape:original="M 257.71875 343.6875 C 254.02552 343.6875 251.0625 346.61395 251.0625 350.25 C 251.0625 353.88605 254.02552 356.8125 257.71875 356.8125 L 273.71875 356.8125 C 277.41198 356.8125 280.375 353.88605 280.375 350.25 C 280.375 346.61395 277.41198 343.6875 273.71875 343.6875 L 257.71875 343.6875 z M 265.71875 642.78125 C 255.62062 642.78125 247.4375 650.96437 247.4375 661.0625 C 247.4375 671.16063 255.62062 679.375 265.71875 679.375 C 275.81688 679.375 284 671.16063 284 661.0625 C 284 650.96437 275.81688 642.78125 265.71875 642.78125 z "
         inkscape:radius="6.0582542"
         sodipodi:type="inkscape:offset" />
      <path
         id="path3890"
         d="M 257.71875,337.625 C 250.82522,337.625 245,343.3227 245,350.25 c 0,2.51794 0.78295,4.86529 2.09375,6.84375 l 36.5,-14.71875 c -2.35407,-2.88005 -5.94158,-4.75 -9.875,-4.75 l -16,0 z m 8,299.09375 c -13.37104,0 -24.34375,10.97271 -24.34375,24.34375 0,3.3769 0.67686,6.59544 1.9375,9.53125 l 44.96875,-18.5625 c -3.61387,-8.94033 -12.37984,-15.3125 -22.5625,-15.3125 z"
         style="opacity:0.8;fill:#f6ffd5;fill-rule:evenodd;stroke:none"
         inkscape:connector-curvature="0" />
      <rect
         rx="20.122889"
         transform="matrix(0.85365854,0,0,0.70992366,38.885016,141.4732)"
         style="fill:url(#linearGradient3993);fill-opacity:1;fill-rule:evenodd;stroke:none"
         id="rect2986"
         width="234.28572"
         height="359.9772"
         x="148.57143"
         y="332.38498"
         ry="20.122889" />
      <path
         transform="matrix(1.3860465,0,0,1.3860465,63.258736,-246.11026)"
         d="m 226.798,542.06665 c 0,44.58654 -36.14453,80.73108 -80.73107,80.73108 -44.58655,0 -80.731084,-36.14454 -80.731084,-80.73108 0,-44.58654 36.144534,-80.73108 80.731084,-80.73108 44.58654,0 80.73107,36.14454 80.73107,80.73108 z"
         sodipodi:ry="80.731079"
         sodipodi:rx="80.731079"
         sodipodi:cy="542.06665"
         sodipodi:cx="146.06693"
         id="path3898"
         style="fill:url(#radialGradient3995);fill-opacity:1;fill-rule:evenodd;stroke:none"
         sodipodi:type="arc" />
      <path
         id="rect3022"
         d="m 200.0625,377.4375 -34.21875,12.71875 c -0.0666,0.5133 -0.125,1.034 -0.125,1.5625 l 0,2.875 46.1875,-17.15625 -11.84375,0 z m 53.90625,0 -88.25,32.75 0,4.40625 100.0625,-37.15625 -11.8125,0 z m 53.875,0 -142.125,52.75 0,4.40625 153.9375,-57.15625 -11.8125,0 z m 49.0625,1.78125 -191.1875,70.96875 0,4.40625 195.4375,-72.5625 c -1.23166,-1.10851 -2.65049,-2.07385 -4.25,-2.8125 z m 8.8125,16.75 -200,74.21875 0,4.40625 200,-74.25 0,-4.375 z m 0,20 -200,74.21875 0,4.40625 200,-74.25 0,-4.375 z m 0,20 -200,74.21875 0,4.40625 200,-74.25 0,-4.375 z m 0,20 -200,74.21875 0,4.40625 200,-74.25 0,-4.375 z m 0,20 -200,74.21875 0,4.40625 200,-74.25 0,-4.375 z m 0,20 -200,74.21875 0,4.40625 200,-74.25 0,-4.375 z m 0,20 -200,74.21875 0,4.40625 200,-74.25 0,-4.375 z m 0,20 -200,74.21875 0,4.40625 200,-74.25 0,-4.375 z m 0,20 -195.375,72.5 c 1.25027,1.11266 2.69003,2.07835 4.3125,2.8125 0.009,0.004 0.0227,-0.004 0.0312,0 l 191.03125,-70.9375 0,-4.375 z m 0,20 L 212.03125,633 l 11.84375,0 141.84375,-52.65625 0,-4.375 z m 0,20 -99.8125,37.03125 11.84375,0 87.96875,-32.65625 0,-4.375 z m 0,20 L 319.8125,633 l 11.8125,0 33.96875,-12.625 c 0.0748,-0.54328 0.125,-1.09578 0.125,-1.65625 l 0,-2.75 z"
         style="opacity:0.6;fill:#c8ab37;fill-rule:evenodd;stroke:none"
         inkscape:connector-curvature="0" />
      <path
         transform="matrix(0.59286114,0,0,0.59286114,453.73464,320.36709)"
         d="m -317.15625,171.90625 c -43.07988,0 -82.34678,13.31531 -111.4375,35.6875 -29.09072,22.37219 -48.1875,54.52054 -48.1875,90.46875 0,35.84417 18.9596,67.73354 47.96875,90.21875 -9.83477,15.86556 -24.39953,29.27967 -38.28125,35.21875 a 14.69333,14.69333 0 0 0 7.03125,28.125 c 38.56306,-3.31102 76.38372,-13.35165 107.34375,-30.5625 11.46852,2.05346 23.34281,3.1875 35.5625,3.1875 43.08179,0 82.37123,-13.30807 111.46875,-35.6875 29.09752,-22.37943 48.1875,-54.5493 48.1875,-90.5 0,-35.9507 -19.0893,-68.09746 -48.1875,-90.46875 -29.0982,-22.37129 -68.38887,-35.6875 -111.46875,-35.6875 z"
         id="path3835"
         style="fill:#deb821;fill-opacity:1;fill-rule:evenodd;stroke:none"
         inkscape:original="M -317.15625 186.59375 C -397.21176 186.59375 -462.09375 236.48652 -462.09375 298.0625 C -462.09375 332.56267 -441.71571 363.42379 -409.71875 383.875 C -420.34184 407.51037 -440.15675 427.94884 -461.3125 437 C -422.4905 433.66675 -384.46967 423.11794 -355.21875 405.6875 C -343.08338 408.22234 -330.33508 409.5625 -317.15625 409.5625 C -237.10074 409.5625 -172.1875 359.63848 -172.1875 298.0625 C -172.1875 236.48652 -237.10074 186.59375 -317.15625 186.59375 z "
         inkscape:radius="14.691861"
         sodipodi:type="inkscape:offset" />
      <path
         transform="matrix(0.59286114,0,0,0.59286114,453.73464,320.36709)"
         inkscape:connector-curvature="0"
         id="path2988"
         d="m -317.15625,186.59375 c -80.05551,0 -144.9375,49.89277 -144.9375,111.46875 0,34.50017 20.37804,65.36129 52.375,85.8125 -10.62309,23.63537 -30.438,44.07384 -51.59375,53.125 38.822,-3.33325 76.84283,-13.88206 106.09375,-31.3125 12.13537,2.53484 24.88367,3.875 38.0625,3.875 80.05551,0 144.96875,-49.92402 144.96875,-111.5 0,-61.57598 -64.91324,-111.46875 -144.96875,-111.46875 z"
         style="fill:url(#linearGradient3997);fill-opacity:1;fill-rule:evenodd;stroke:none" />
      <path
         id="path3018"
         d="m 257.71875,343.6875 c -3.69323,0 -6.65625,2.92645 -6.65625,6.5625 0,3.63605 2.96302,6.5625 6.65625,6.5625 l 16,0 c 3.69323,0 6.65625,-2.92645 6.65625,-6.5625 0,-3.63605 -2.96302,-6.5625 -6.65625,-6.5625 l -16,0 z m 8,299.09375 c -10.09813,0 -18.28125,8.18312 -18.28125,18.28125 0,10.09813 8.18312,18.3125 18.28125,18.3125 10.09813,0 18.28125,-8.21437 18.28125,-18.3125 0,-10.09813 -8.18312,-18.28125 -18.28125,-18.28125 z"
         style="fill:#445500;fill-rule:evenodd;stroke:none"
         inkscape:connector-curvature="0" />
      <path
         id="rect3812"
         d="m 182.90625,377.4375 c -9.51665,0 -17.1875,6.36696 -17.1875,14.28125 l 0,227 c 0,7.91429 7.67085,14.28125 17.1875,14.28125 l 165.625,0 c 9.51665,0 17.1875,-6.36696 17.1875,-14.28125 l 0,-227 c 0,-7.91429 -7.67085,-14.28125 -17.1875,-14.28125 l -165.625,0 z m -0.0312,4.6875 165.65625,0 c 6.48845,0 11.53125,4.19779 11.53125,9.59375 l 0,227 c 0,5.39596 -5.0428,9.59375 -11.53125,9.59375 l -165.65625,0 c -6.48845,0 -11.53125,-4.19779 -11.53125,-9.59375 l 0,-227 c 0,-5.39596 5.0428,-9.59375 11.53125,-9.59375 z"
         style="opacity:0.6;fill:url(#linearGradient3999);fill-opacity:1;fill-rule:evenodd;stroke:none"
         inkscape:connector-curvature="0" />
      <rect
         transform="matrix(0.56603774,0,0,0.56603774,118.4575,288.65564)"
         ry="0"
         rx="0"
         y="644.70752"
         x="248.09805"
         height="24.126966"
         width="24.126966"
         id="rect3881"
         style="opacity:0.5;fill:#91b600;fill-opacity:1;fill-rule:evenodd;stroke:none" />
      <path
         sodipodi:nodetypes="sssssssssssssssssssss"
         transform="matrix(0.9004914,0,0,0.9004914,26.042873,49.583269)"
         inkscape:connector-curvature="0"
         id="rect3883"
         d="m 223.65625,461.28125 c -3.87189,0 -7,3.12811 -7,7 0,3.87189 3.12811,7 7,7 l 85.03125,0 c 3.87189,0 6.96875,-3.12811 6.96875,-7 0,-3.87189 -3.09686,-7 -6.96875,-7 z m 0,30 c -3.87189,0 -7,3.12811 -7,7 0,3.87189 3.12811,7 7,7 l 85.03125,0 c 3.87189,0 6.96875,-3.12811 6.96875,-7 0,-3.87189 -3.09686,-7 -6.96875,-7 z m 0,30 c -3.87189,0 -7,3.12811 -7,7 0,3.87189 3.12811,7 7,7 l 55.03125,0 c 3.87189,0 6.96875,-3.12811 6.96875,-7 0,-3.87189 -3.09686,-7 -6.96875,-7 z"
         style="fill:#6c6753;fill-opacity:1;fill-rule:evenodd;stroke:none" />
      <path
         id="rect3930"
         d="m 182.84375,318.0625 c -18.99429,0 -34.28125,15.31821 -34.28125,34.3125 l 0,305.6875 c 0,18.99429 15.28696,34.3125 34.28125,34.3125 l 165.71875,0 c 18.99429,0 34.28125,-15.31821 34.28125,-34.3125 l 0,-305.6875 c 0,-18.99429 -15.28696,-34.3125 -34.28125,-34.3125 l -165.71875,0 z m 0,6.375 165.71875,0 c 15.56913,0 27.90625,12.36138 27.90625,27.9375 l 0,305.6875 c 0,15.57612 -12.33712,27.9375 -27.90625,27.9375 l -165.71875,0 c -15.56913,0 -27.90625,-12.36138 -27.90625,-27.9375 l 0,-305.6875 c 0,-15.57612 12.33712,-27.9375 27.90625,-27.9375 z"
         style="opacity:0.3;fill:#deebaa;fill-opacity:1;fill-rule:evenodd;stroke:none"
         inkscape:connector-curvature="0" />
    </g>
    <g
       id="g3951"
       transform="matrix(0.17250871,0.04622357,-0.04622357,0.17250871,203.57956,354.78237)">
      <path
         sodipodi:type="inkscape:offset"
         inkscape:radius="6.0115986"
         inkscape:original="M 182.84375 318.0625 C 163.84946 318.0625 148.5625 333.38071 148.5625 352.375 L 148.5625 658.0625 C 148.5625 677.05679 163.84946 692.375 182.84375 692.375 L 348.5625 692.375 C 367.55679 692.375 382.84375 677.05679 382.84375 658.0625 L 382.84375 352.375 C 382.84375 333.38071 367.55679 318.0625 348.5625 318.0625 L 182.84375 318.0625 z "
         style="fill:#6c6753;fill-opacity:1;fill-rule:evenodd;stroke:none"
         id="path3953"
         d="m 182.84375,312.0625 c -22.22638,0 -40.28125,18.09271 -40.28125,40.3125 l 0,305.6875 c 0,22.21979 18.05487,40.3125 40.28125,40.3125 l 165.71875,0 c 22.22638,0 40.28125,-18.09271 40.28125,-40.3125 l 0,-305.6875 c 0,-22.21979 -18.05487,-40.3125 -40.28125,-40.3125 l -165.71875,0 z" />
      <rect
         style="fill:url(#linearGradient3981);fill-opacity:1;fill-rule:evenodd;stroke:none"
         id="rect3955"
         width="234.28572"
         height="374.28571"
         x="148.57143"
         y="318.07648"
         ry="34.285725"
         rx="34.285725" />
      <path
         sodipodi:type="inkscape:offset"
         inkscape:radius="6.0582542"
         inkscape:original="M 257.71875 343.6875 C 254.02552 343.6875 251.0625 346.61395 251.0625 350.25 C 251.0625 353.88605 254.02552 356.8125 257.71875 356.8125 L 273.71875 356.8125 C 277.41198 356.8125 280.375 353.88605 280.375 350.25 C 280.375 346.61395 277.41198 343.6875 273.71875 343.6875 L 257.71875 343.6875 z M 265.71875 642.78125 C 255.62062 642.78125 247.4375 650.96437 247.4375 661.0625 C 247.4375 671.16063 255.62062 679.375 265.71875 679.375 C 275.81688 679.375 284 671.16063 284 661.0625 C 284 650.96437 275.81688 642.78125 265.71875 642.78125 z "
         style="opacity:0.3;fill:#445500;fill-rule:evenodd;stroke:none"
         id="path3957"
         d="M 257.71875,337.625 C 250.82522,337.625 245,343.3227 245,350.25 c 0,6.9273 5.82522,12.625 12.71875,12.625 l 16,0 c 6.89353,0 12.71875,-5.6977 12.71875,-12.625 0,-6.9273 -5.82522,-12.625 -12.71875,-12.625 l -16,0 z m 8,299.09375 c -13.37104,0 -24.34375,10.97271 -24.34375,24.34375 0,13.37104 10.96021,24.375 24.34375,24.375 13.38354,0 24.34375,-11.00396 24.34375,-24.375 0,-13.37104 -10.97271,-24.34375 -24.34375,-24.34375 z" />
      <path
         style="opacity:0.8;fill:#f6ffd5;fill-rule:evenodd;stroke:none"
         d="M 257.71875,337.625 C 250.82522,337.625 245,343.3227 245,350.25 c 0,2.51794 0.78295,4.86529 2.09375,6.84375 l 36.5,-14.71875 c -2.35407,-2.88005 -5.94158,-4.75 -9.875,-4.75 l -16,0 z m 8,299.09375 c -13.37104,0 -24.34375,10.97271 -24.34375,24.34375 0,3.3769 0.67686,6.59544 1.9375,9.53125 l 44.96875,-18.5625 c -3.61387,-8.94033 -12.37984,-15.3125 -22.5625,-15.3125 z"
         id="path3959"
         inkscape:connector-curvature="0" />
      <rect
         ry="20.122889"
         y="332.38498"
         x="148.57143"
         height="359.9772"
         width="234.28572"
         id="rect3961"
         style="fill:url(#linearGradient3983);fill-opacity:1;fill-rule:evenodd;stroke:none"
         transform="matrix(0.85365854,0,0,0.70992366,38.885016,141.4732)"
         rx="20.122889" />
      <path
         sodipodi:type="arc"
         style="fill:url(#radialGradient3985);fill-opacity:1;fill-rule:evenodd;stroke:none"
         id="path3963"
         sodipodi:cx="146.06693"
         sodipodi:cy="542.06665"
         sodipodi:rx="80.731079"
         sodipodi:ry="80.731079"
         d="m 226.798,542.06665 a 80.731079,80.731079 0 1 1 -161.462154,0 80.731079,80.731079 0 1 1 161.462154,0 z"
         transform="matrix(1.3860465,0,0,1.3860465,63.258736,-246.11026)" />
      <path
         style="opacity:0.6;fill:#c8ab37;fill-rule:evenodd;stroke:none"
         d="m 200.0625,377.4375 -34.21875,12.71875 c -0.0666,0.5133 -0.125,1.034 -0.125,1.5625 l 0,2.875 46.1875,-17.15625 -11.84375,0 z m 53.90625,0 -88.25,32.75 0,4.40625 100.0625,-37.15625 -11.8125,0 z m 53.875,0 -142.125,52.75 0,4.40625 153.9375,-57.15625 -11.8125,0 z m 49.0625,1.78125 -191.1875,70.96875 0,4.40625 195.4375,-72.5625 c -1.23166,-1.10851 -2.65049,-2.07385 -4.25,-2.8125 z m 8.8125,16.75 -200,74.21875 0,4.40625 200,-74.25 0,-4.375 z m 0,20 -200,74.21875 0,4.40625 200,-74.25 0,-4.375 z m 0,20 -200,74.21875 0,4.40625 200,-74.25 0,-4.375 z m 0,20 -200,74.21875 0,4.40625 200,-74.25 0,-4.375 z m 0,20 -200,74.21875 0,4.40625 200,-74.25 0,-4.375 z m 0,20 -200,74.21875 0,4.40625 200,-74.25 0,-4.375 z m 0,20 -200,74.21875 0,4.40625 200,-74.25 0,-4.375 z m 0,20 -200,74.21875 0,4.40625 200,-74.25 0,-4.375 z m 0,20 -195.375,72.5 c 1.25027,1.11266 2.69003,2.07835 4.3125,2.8125 0.009,0.004 0.0227,-0.004 0.0312,0 l 191.03125,-70.9375 0,-4.375 z m 0,20 L 212.03125,633 l 11.84375,0 141.84375,-52.65625 0,-4.375 z m 0,20 -99.8125,37.03125 11.84375,0 87.96875,-32.65625 0,-4.375 z m 0,20 L 319.8125,633 l 11.8125,0 33.96875,-12.625 c 0.0748,-0.54328 0.125,-1.09578 0.125,-1.65625 l 0,-2.75 z"
         id="path3965"
         inkscape:connector-curvature="0" />
      <path
         sodipodi:type="inkscape:offset"
         inkscape:radius="14.691861"
         inkscape:original="M -317.15625 186.59375 C -397.21176 186.59375 -462.09375 236.48652 -462.09375 298.0625 C -462.09375 332.56267 -441.71571 363.42379 -409.71875 383.875 C -420.34184 407.51037 -440.15675 427.94884 -461.3125 437 C -422.4905 433.66675 -384.46967 423.11794 -355.21875 405.6875 C -343.08338 408.22234 -330.33508 409.5625 -317.15625 409.5625 C -237.10074 409.5625 -172.1875 359.63848 -172.1875 298.0625 C -172.1875 236.48652 -237.10074 186.59375 -317.15625 186.59375 z "
         style="fill:#deb821;fill-opacity:1;fill-rule:evenodd;stroke:none"
         id="path3967"
         d="m -317.15625,171.90625 c -43.07988,0 -82.34678,13.31531 -111.4375,35.6875 -29.09072,22.37219 -48.1875,54.52054 -48.1875,90.46875 0,35.84417 18.9596,67.73354 47.96875,90.21875 -9.83477,15.86556 -24.39953,29.27967 -38.28125,35.21875 a 14.69333,14.69333 0 0 0 7.03125,28.125 c 38.56306,-3.31102 76.38372,-13.35165 107.34375,-30.5625 11.46852,2.05346 23.34281,3.1875 35.5625,3.1875 43.08179,0 82.37123,-13.30807 111.46875,-35.6875 29.09752,-22.37943 48.1875,-54.5493 48.1875,-90.5 0,-35.9507 -19.0893,-68.09746 -48.1875,-90.46875 -29.0982,-22.37129 -68.38887,-35.6875 -111.46875,-35.6875 z"
         transform="matrix(0.59286114,0,0,0.59286114,453.73464,320.36709)" />
      <path
         style="fill:url(#linearGradient3987);fill-opacity:1;fill-rule:evenodd;stroke:none"
         d="m -317.15625,186.59375 c -80.05551,0 -144.9375,49.89277 -144.9375,111.46875 0,34.50017 20.37804,65.36129 52.375,85.8125 -10.62309,23.63537 -30.438,44.07384 -51.59375,53.125 38.822,-3.33325 76.84283,-13.88206 106.09375,-31.3125 12.13537,2.53484 24.88367,3.875 38.0625,3.875 80.05551,0 144.96875,-49.92402 144.96875,-111.5 0,-61.57598 -64.91324,-111.46875 -144.96875,-111.46875 z"
         id="path3969"
         inkscape:connector-curvature="0"
         transform="matrix(0.59286114,0,0,0.59286114,453.73464,320.36709)" />
      <path
         style="fill:#445500;fill-rule:evenodd;stroke:none"
         d="m 257.71875,343.6875 c -3.69323,0 -6.65625,2.92645 -6.65625,6.5625 0,3.63605 2.96302,6.5625 6.65625,6.5625 l 16,0 c 3.69323,0 6.65625,-2.92645 6.65625,-6.5625 0,-3.63605 -2.96302,-6.5625 -6.65625,-6.5625 l -16,0 z m 8,299.09375 c -10.09813,0 -18.28125,8.18312 -18.28125,18.28125 0,10.09813 8.18312,18.3125 18.28125,18.3125 10.09813,0 18.28125,-8.21437 18.28125,-18.3125 0,-10.09813 -8.18312,-18.28125 -18.28125,-18.28125 z"
         id="path3971"
         inkscape:connector-curvature="0" />
      <path
         style="opacity:0.6;fill:url(#linearGradient3989);fill-opacity:1;fill-rule:evenodd;stroke:none"
         d="m 182.90625,377.4375 c -9.51665,0 -17.1875,6.36696 -17.1875,14.28125 l 0,227 c 0,7.91429 7.67085,14.28125 17.1875,14.28125 l 165.625,0 c 9.51665,0 17.1875,-6.36696 17.1875,-14.28125 l 0,-227 c 0,-7.91429 -7.67085,-14.28125 -17.1875,-14.28125 l -165.625,0 z m -0.0312,4.6875 165.65625,0 c 6.48845,0 11.53125,4.19779 11.53125,9.59375 l 0,227 c 0,5.39596 -5.0428,9.59375 -11.53125,9.59375 l -165.65625,0 c -6.48845,0 -11.53125,-4.19779 -11.53125,-9.59375 l 0,-227 c 0,-5.39596 5.0428,-9.59375 11.53125,-9.59375 z"
         id="path3973"
         inkscape:connector-curvature="0" />
      <rect
         style="opacity:0.5;fill:#91b600;fill-opacity:1;fill-rule:evenodd;stroke:none"
         id="rect3975"
         width="24.126966"
         height="24.126966"
         x="248.09805"
         y="644.70752"
         rx="0"
         ry="0"
         transform="matrix(0.56603774,0,0,0.56603774,118.4575,288.65564)" />
      <path
         style="fill:#6c6753;fill-opacity:1;fill-rule:evenodd;stroke:none"
         d="m 223.65625,461.28125 c -3.87189,0 -7,3.12811 -7,7 0,3.87189 3.12811,7 7,7 l 85.03125,0 c 3.87189,0 6.96875,-3.12811 6.96875,-7 0,-3.87189 -3.09686,-7 -6.96875,-7 z m 0,30 c -3.87189,0 -7,3.12811 -7,7 0,3.87189 3.12811,7 7,7 l 85.03125,0 c 3.87189,0 6.96875,-3.12811 6.96875,-7 0,-3.87189 -3.09686,-7 -6.96875,-7 z m 0,30 c -3.87189,0 -7,3.12811 -7,7 0,3.87189 3.12811,7 7,7 l 55.03125,0 c 3.87189,0 6.96875,-3.12811 6.96875,-7 0,-3.87189 -3.09686,-7 -6.96875,-7 z"
         id="path3977"
         inkscape:connector-curvature="0"
         transform="matrix(0.9004914,0,0,0.9004914,26.042873,49.583269)"
         sodipodi:nodetypes="sssssssssssssssssssss" />
      <path
         style="opacity:0.3;fill:#deebaa;fill-opacity:1;fill-rule:evenodd;stroke:none"
         d="m 182.84375,318.0625 c -18.99429,0 -34.28125,15.31821 -34.28125,34.3125 l 0,305.6875 c 0,18.99429 15.28696,34.3125 34.28125,34.3125 l 165.71875,0 c 18.99429,0 34.28125,-15.31821 34.28125,-34.3125 l 0,-305.6875 c 0,-18.99429 -15.28696,-34.3125 -34.28125,-34.3125 l -165.71875,0 z m 0,6.375 165.71875,0 c 15.56913,0 27.90625,12.36138 27.90625,27.9375 l 0,305.6875 c 0,15.57612 -12.33712,27.9375 -27.90625,27.9375 l -165.71875,0 c -15.56913,0 -27.90625,-12.36138 -27.90625,-27.9375 l 0,-305.6875 c 0,-15.57612 12.33712,-27.9375 27.90625,-27.9375 z"
         id="path3979"
         inkscape:connector-curvature="0" />
    </g>
    <rect
       style="fill:#fff6d5;fill-rule:evenodd;stroke:none"
       id="rect4001"
       width="2041.2867"
       height="1754.6677"
       x="-754.99646"
       y="-646.37988"
       rx="0"
       ry="0"
       transform="matrix(0.24494354,0,0,0.19946796,326.82932,165.46503)" />
    <path
       sodipodi:type="arc"
       style="fill:url(#radialGradient4185);fill-opacity:1;fill-rule:evenodd;stroke:none"
       id="path4183"
       sodipodi:cx="262"
       sodipodi:cy="216.36218"
       sodipodi:rx="72"
       sodipodi:ry="72"
       d="m 334,216.36218 a 72,72 0 1 1 -144,0 72,72 0 1 1 144,0 z"
       transform="matrix(1.7878908,0,0,1.7878908,38.47042,-175.299)" />
    <path
       transform="matrix(1.7878908,0,0,1.7878908,-191.52956,-175.299)"
       d="m 334,216.36218 a 72,72 0 1 1 -144,0 72,72 0 1 1 144,0 z"
       sodipodi:ry="72"
       sodipodi:rx="72"
       sodipodi:cy="216.36218"
       sodipodi:cx="262"
       id="path4173"
       style="fill:url(#radialGradient4181);fill-opacity:1;fill-rule:evenodd;stroke:none"
       sodipodi:type="arc" />
    <path
       sodipodi:type="arc"
       style="fill:#ffeeaa;fill-rule:evenodd;stroke:none"
       id="path4043"
       sodipodi:cx="262"
       sodipodi:cy="216.36218"
       sodipodi:rx="72"
       sodipodi:ry="72"
       d="m 334,216.36218 a 72,72 0 1 1 -144,0 72,72 0 1 1 144,0 z"
       transform="translate(14.897815,-4.8292335)" />
    <path
       sodipodi:type="arc"
       style="fill:url(#radialGradient4231);fill-opacity:1;fill-rule:evenodd;stroke:none"
       id="path4229"
       sodipodi:cx="262"
       sodipodi:cy="216.36218"
       sodipodi:rx="72"
       sodipodi:ry="72"
       d="m 334,216.36218 a 72,72 0 1 1 -144,0 72,72 0 1 1 144,0 z"
       transform="matrix(0.80177968,0,0,0.80177968,66.831552,38.058152)" />
    <g
       transform="matrix(0.17250871,0.04622357,-0.04622357,0.17250871,254.41473,112.09657)"
       id="g4003">
      <path
         d="m 182.84375,312.0625 c -22.22638,0 -40.28125,18.09271 -40.28125,40.3125 l 0,305.6875 c 0,22.21979 18.05487,40.3125 40.28125,40.3125 l 165.71875,0 c 22.22638,0 40.28125,-18.09271 40.28125,-40.3125 l 0,-305.6875 c 0,-22.21979 -18.05487,-40.3125 -40.28125,-40.3125 l -165.71875,0 z"
         id="path4005"
         style="fill:#6c6753;fill-opacity:1;fill-rule:evenodd;stroke:none"
         inkscape:original="M 182.84375 318.0625 C 163.84946 318.0625 148.5625 333.38071 148.5625 352.375 L 148.5625 658.0625 C 148.5625 677.05679 163.84946 692.375 182.84375 692.375 L 348.5625 692.375 C 367.55679 692.375 382.84375 677.05679 382.84375 658.0625 L 382.84375 352.375 C 382.84375 333.38071 367.55679 318.0625 348.5625 318.0625 L 182.84375 318.0625 z "
         inkscape:radius="6.0115986"
         sodipodi:type="inkscape:offset" />
      <rect
         rx="34.285725"
         ry="34.285725"
         y="318.07648"
         x="148.57143"
         height="374.28571"
         width="234.28572"
         id="rect4007"
         style="fill:url(#linearGradient4066);fill-opacity:1;fill-rule:evenodd;stroke:none" />
      <path
         d="M 257.71875,337.625 C 250.82522,337.625 245,343.3227 245,350.25 c 0,6.9273 5.82522,12.625 12.71875,12.625 l 16,0 c 6.89353,0 12.71875,-5.6977 12.71875,-12.625 0,-6.9273 -5.82522,-12.625 -12.71875,-12.625 l -16,0 z m 8,299.09375 c -13.37104,0 -24.34375,10.97271 -24.34375,24.34375 0,13.37104 10.96021,24.375 24.34375,24.375 13.38354,0 24.34375,-11.00396 24.34375,-24.375 0,-13.37104 -10.97271,-24.34375 -24.34375,-24.34375 z"
         id="path4009"
         style="opacity:0.3;fill:#445500;fill-rule:evenodd;stroke:none"
         inkscape:original="M 257.71875 343.6875 C 254.02552 343.6875 251.0625 346.61395 251.0625 350.25 C 251.0625 353.88605 254.02552 356.8125 257.71875 356.8125 L 273.71875 356.8125 C 277.41198 356.8125 280.375 353.88605 280.375 350.25 C 280.375 346.61395 277.41198 343.6875 273.71875 343.6875 L 257.71875 343.6875 z M 265.71875 642.78125 C 255.62062 642.78125 247.4375 650.96437 247.4375 661.0625 C 247.4375 671.16063 255.62062 679.375 265.71875 679.375 C 275.81688 679.375 284 671.16063 284 661.0625 C 284 650.96437 275.81688 642.78125 265.71875 642.78125 z "
         inkscape:radius="6.0582542"
         sodipodi:type="inkscape:offset" />
      <path
         inkscape:connector-curvature="0"
         id="path4011"
         d="M 257.71875,337.625 C 250.82522,337.625 245,343.3227 245,350.25 c 0,2.51794 0.78295,4.86529 2.09375,6.84375 l 36.5,-14.71875 c -2.35407,-2.88005 -5.94158,-4.75 -9.875,-4.75 l -16,0 z m 8,299.09375 c -13.37104,0 -24.34375,10.97271 -24.34375,24.34375 0,3.3769 0.67686,6.59544 1.9375,9.53125 l 44.96875,-18.5625 c -3.61387,-8.94033 -12.37984,-15.3125 -22.5625,-15.3125 z"
         style="opacity:0.8;fill:#f6ffd5;fill-rule:evenodd;stroke:none" />
      <rect
         rx="20.122889"
         transform="matrix(0.85365854,0,0,0.70992366,38.885016,141.4732)"
         style="fill:url(#linearGradient4068);fill-opacity:1;fill-rule:evenodd;stroke:none"
         id="rect4013"
         width="234.28572"
         height="359.9772"
         x="148.57143"
         y="332.38498"
         ry="20.122889" />
      <path
         transform="matrix(1.3860465,0,0,1.3860465,63.258736,-246.11026)"
         d="m 226.798,542.06665 c 0,44.58654 -36.14453,80.73108 -80.73107,80.73108 -44.58655,0 -80.731084,-36.14454 -80.731084,-80.73108 0,-44.58654 36.144534,-80.73108 80.731084,-80.73108 44.58654,0 80.73107,36.14454 80.73107,80.73108 z"
         sodipodi:ry="80.731079"
         sodipodi:rx="80.731079"
         sodipodi:cy="542.06665"
         sodipodi:cx="146.06693"
         id="path4015"
         style="fill:url(#radialGradient4070);fill-opacity:1;fill-rule:evenodd;stroke:none"
         sodipodi:type="arc" />
      <path
         inkscape:connector-curvature="0"
         id="path4017"
         d="m 200.0625,377.4375 -34.21875,12.71875 c -0.0666,0.5133 -0.125,1.034 -0.125,1.5625 l 0,2.875 46.1875,-17.15625 -11.84375,0 z m 53.90625,0 -88.25,32.75 0,4.40625 100.0625,-37.15625 -11.8125,0 z m 53.875,0 -142.125,52.75 0,4.40625 153.9375,-57.15625 -11.8125,0 z m 49.0625,1.78125 -191.1875,70.96875 0,4.40625 195.4375,-72.5625 c -1.23166,-1.10851 -2.65049,-2.07385 -4.25,-2.8125 z m 8.8125,16.75 -200,74.21875 0,4.40625 200,-74.25 0,-4.375 z m 0,20 -200,74.21875 0,4.40625 200,-74.25 0,-4.375 z m 0,20 -200,74.21875 0,4.40625 200,-74.25 0,-4.375 z m 0,20 -200,74.21875 0,4.40625 200,-74.25 0,-4.375 z m 0,20 -200,74.21875 0,4.40625 200,-74.25 0,-4.375 z m 0,20 -200,74.21875 0,4.40625 200,-74.25 0,-4.375 z m 0,20 -200,74.21875 0,4.40625 200,-74.25 0,-4.375 z m 0,20 -200,74.21875 0,4.40625 200,-74.25 0,-4.375 z m 0,20 -195.375,72.5 c 1.25027,1.11266 2.69003,2.07835 4.3125,2.8125 0.009,0.004 0.0227,-0.004 0.0312,0 l 191.03125,-70.9375 0,-4.375 z m 0,20 L 212.03125,633 l 11.84375,0 141.84375,-52.65625 0,-4.375 z m 0,20 -99.8125,37.03125 11.84375,0 87.96875,-32.65625 0,-4.375 z m 0,20 L 319.8125,633 l 11.8125,0 33.96875,-12.625 c 0.0748,-0.54328 0.125,-1.09578 0.125,-1.65625 l 0,-2.75 z"
         style="opacity:0.6;fill:#c8ab37;fill-rule:evenodd;stroke:none" />
      <path
         transform="matrix(0.59286114,0,0,0.59286114,453.73464,320.36709)"
         d="m -317.15625,171.90625 c -43.07988,0 -82.34678,13.31531 -111.4375,35.6875 -29.09072,22.37219 -48.1875,54.52054 -48.1875,90.46875 0,35.84417 18.9596,67.73354 47.96875,90.21875 -9.83477,15.86556 -24.39953,29.27967 -38.28125,35.21875 a 14.69333,14.69333 0 0 0 7.03125,28.125 c 38.56306,-3.31102 76.38372,-13.35165 107.34375,-30.5625 11.46852,2.05346 23.34281,3.1875 35.5625,3.1875 43.08179,0 82.37123,-13.30807 111.46875,-35.6875 29.09752,-22.37943 48.1875,-54.5493 48.1875,-90.5 0,-35.9507 -19.0893,-68.09746 -48.1875,-90.46875 -29.0982,-22.37129 -68.38887,-35.6875 -111.46875,-35.6875 z"
         id="path4019"
         style="fill:#deb821;fill-opacity:1;fill-rule:evenodd;stroke:none"
         inkscape:original="M -317.15625 186.59375 C -397.21176 186.59375 -462.09375 236.48652 -462.09375 298.0625 C -462.09375 332.56267 -441.71571 363.42379 -409.71875 383.875 C -420.34184 407.51037 -440.15675 427.94884 -461.3125 437 C -422.4905 433.66675 -384.46967 423.11794 -355.21875 405.6875 C -343.08338 408.22234 -330.33508 409.5625 -317.15625 409.5625 C -237.10074 409.5625 -172.1875 359.63848 -172.1875 298.0625 C -172.1875 236.48652 -237.10074 186.59375 -317.15625 186.59375 z "
         inkscape:radius="14.691861"
         sodipodi:type="inkscape:offset" />
      <path
         transform="matrix(0.59286114,0,0,0.59286114,453.73464,320.36709)"
         inkscape:connector-curvature="0"
         id="path4021"
         d="m -317.15625,186.59375 c -80.05551,0 -144.9375,49.89277 -144.9375,111.46875 0,34.50017 20.37804,65.36129 52.375,85.8125 -10.62309,23.63537 -30.438,44.07384 -51.59375,53.125 38.822,-3.33325 76.84283,-13.88206 106.09375,-31.3125 12.13537,2.53484 24.88367,3.875 38.0625,3.875 80.05551,0 144.96875,-49.92402 144.96875,-111.5 0,-61.57598 -64.91324,-111.46875 -144.96875,-111.46875 z"
         style="fill:url(#linearGradient4072);fill-opacity:1;fill-rule:evenodd;stroke:none" />
      <path
         inkscape:connector-curvature="0"
         id="path4023"
         d="m 257.71875,343.6875 c -3.69323,0 -6.65625,2.92645 -6.65625,6.5625 0,3.63605 2.96302,6.5625 6.65625,6.5625 l 16,0 c 3.69323,0 6.65625,-2.92645 6.65625,-6.5625 0,-3.63605 -2.96302,-6.5625 -6.65625,-6.5625 l -16,0 z m 8,299.09375 c -10.09813,0 -18.28125,8.18312 -18.28125,18.28125 0,10.09813 8.18312,18.3125 18.28125,18.3125 10.09813,0 18.28125,-8.21437 18.28125,-18.3125 0,-10.09813 -8.18312,-18.28125 -18.28125,-18.28125 z"
         style="fill:#445500;fill-rule:evenodd;stroke:none" />
      <path
         inkscape:connector-curvature="0"
         id="path4025"
         d="m 182.90625,377.4375 c -9.51665,0 -17.1875,6.36696 -17.1875,14.28125 l 0,227 c 0,7.91429 7.67085,14.28125 17.1875,14.28125 l 165.625,0 c 9.51665,0 17.1875,-6.36696 17.1875,-14.28125 l 0,-227 c 0,-7.91429 -7.67085,-14.28125 -17.1875,-14.28125 l -165.625,0 z m -0.0312,4.6875 165.65625,0 c 6.48845,0 11.53125,4.19779 11.53125,9.59375 l 0,227 c 0,5.39596 -5.0428,9.59375 -11.53125,9.59375 l -165.65625,0 c -6.48845,0 -11.53125,-4.19779 -11.53125,-9.59375 l 0,-227 c 0,-5.39596 5.0428,-9.59375 11.53125,-9.59375 z"
         style="opacity:0.6;fill:url(#linearGradient4074);fill-opacity:1;fill-rule:evenodd;stroke:none" />
      <rect
         transform="matrix(0.56603774,0,0,0.56603774,118.4575,288.65564)"
         ry="0"
         rx="0"
         y="644.70752"
         x="248.09805"
         height="24.126966"
         width="24.126966"
         id="rect4027"
         style="opacity:0.5;fill:#91b600;fill-opacity:1;fill-rule:evenodd;stroke:none" />
      <path
         sodipodi:nodetypes="sssssssssssssssssssss"
         transform="matrix(0.9004914,0,0,0.9004914,26.042873,49.583269)"
         inkscape:connector-curvature="0"
         id="path4029"
         d="m 223.65625,461.28125 c -3.87189,0 -7,3.12811 -7,7 0,3.87189 3.12811,7 7,7 l 85.03125,0 c 3.87189,0 6.96875,-3.12811 6.96875,-7 0,-3.87189 -3.09686,-7 -6.96875,-7 z m 0,30 c -3.87189,0 -7,3.12811 -7,7 0,3.87189 3.12811,7 7,7 l 85.03125,0 c 3.87189,0 6.96875,-3.12811 6.96875,-7 0,-3.87189 -3.09686,-7 -6.96875,-7 z m 0,30 c -3.87189,0 -7,3.12811 -7,7 0,3.87189 3.12811,7 7,7 l 55.03125,0 c 3.87189,0 6.96875,-3.12811 6.96875,-7 0,-3.87189 -3.09686,-7 -6.96875,-7 z"
         style="fill:#6c6753;fill-opacity:1;fill-rule:evenodd;stroke:none" />
      <path
         inkscape:connector-curvature="0"
         id="path4031"
         d="m 182.84375,318.0625 c -18.99429,0 -34.28125,15.31821 -34.28125,34.3125 l 0,305.6875 c 0,18.99429 15.28696,34.3125 34.28125,34.3125 l 165.71875,0 c 18.99429,0 34.28125,-15.31821 34.28125,-34.3125 l 0,-305.6875 c 0,-18.99429 -15.28696,-34.3125 -34.28125,-34.3125 l -165.71875,0 z m 0,6.375 165.71875,0 c 15.56913,0 27.90625,12.36138 27.90625,27.9375 l 0,305.6875 c 0,15.57612 -12.33712,27.9375 -27.90625,27.9375 l -165.71875,0 c -15.56913,0 -27.90625,-12.36138 -27.90625,-27.9375 l 0,-305.6875 c 0,-15.57612 12.33712,-27.9375 27.90625,-27.9375 z"
         style="opacity:0.3;fill:#deebaa;fill-opacity:1;fill-rule:evenodd;stroke:none" />
    </g>
    <path
       transform="translate(244.89781,-4.8292335)"
       d="m 334,216.36218 a 72,72 0 1 1 -144,0 72,72 0 1 1 144,0 z"
       sodipodi:ry="72"
       sodipodi:rx="72"
       sodipodi:cy="216.36218"
       sodipodi:cx="262"
       id="path4045"
       style="fill:#ffeeaa;fill-rule:evenodd;stroke:none"
       sodipodi:type="arc" />
    <path
       style="fill:url(#linearGradient4107);fill-opacity:1;fill-rule:evenodd;stroke:none"
       d="m 235,73.40625 0,32.96875 -273.604735,0 0,84 273.604735,0 0,32.9375 74.96875,-74.9375 z"
       id="rect4095"
       inkscape:connector-curvature="0"
       transform="matrix(0.2867939,0,0,0.28496706,337.98504,169.25541)"
       sodipodi:nodetypes="cccccccc" />
    <path
       style="opacity:0.7;fill:#ffffff;fill-opacity:1;fill-rule:evenodd;stroke:none"
       d="m 402.875,139.1875 c -19.44194,0 -35.1875,12.13967 -35.1875,27.09375 0,8.37857 4.9481,15.87706 12.71875,20.84375 -2.57988,5.73999 -7.39345,10.67687 -12.53125,12.875 9.42815,-0.8095 18.64624,-3.36067 25.75,-7.59375 2.94714,0.6156 6.04944,0.9375 9.25,0.9375 19.44194,0 35.21875,-12.10842 35.21875,-27.0625 0,-14.95408 -15.77681,-27.09375 -35.21875,-27.09375 z"
       id="path2988-3"
       inkscape:connector-curvature="0"
       transform="matrix(1.3109456,0,0,1.3109456,-173.89534,-65.970992)" />
    <path
       transform="matrix(-0.70955642,0,0,0.70955642,506.4644,63.117372)"
       inkscape:connector-curvature="0"
       id="path4171"
       d="m 402.875,139.1875 c -19.44194,0 -35.1875,12.13967 -35.1875,27.09375 0,8.37857 4.9481,15.87706 12.71875,20.84375 -2.57988,5.73999 -7.39345,10.67687 -12.53125,12.875 9.42815,-0.8095 18.64624,-3.36067 25.75,-7.59375 2.94714,0.6156 6.04944,0.9375 9.25,0.9375 19.44194,0 35.21875,-12.10842 35.21875,-27.0625 0,-14.95408 -15.77681,-27.09375 -35.21875,-27.09375 z"
       style="opacity:0.80000000000000004;fill:#ffffff;fill-opacity:1;fill-rule:evenodd;stroke:none;stroke-opacity:1;stroke-width:1.40933120000000001;stroke-miterlimit:4;stroke-dasharray:none;stroke-linejoin:round;stroke-linecap:round" />
    <g
       style="font-size:40px;font-style:normal;font-variant:normal;font-weight:normal;font-stretch:normal;text-align:start;line-height:125%;letter-spacing:0px;word-spacing:0px;writing-mode:lr-tb;text-anchor:start;fill:#6c6753;fill-opacity:1;stroke:none;font-family:Arial Rounded MT Bold;-inkscape-font-specification:'Arial Rounded MT Bold,';opacity:0.5"
       id="text4187"
       transform="matrix(0,0.54641115,-0.54641115,0,300.20087,122.29493)">
      <path
         d="m 96.108612,156.54594 c -0.807297,0 -1.503911,-0.26041 -2.089844,-0.78125 -0.585941,-0.52083 -0.878909,-1.24999 -0.878906,-2.1875 -3e-6,-0.79426 0.279944,-1.47786 0.839844,-2.05078 0.559891,-0.57291 1.249994,-0.85937 2.070312,-0.85937 0.820306,0 1.51692,0.28646 2.089844,0.85937 0.585929,0.5599 0.878897,1.2435 0.878906,2.05078 -9e-6,0.92448 -0.292977,1.65365 -0.878906,2.1875 -0.572924,0.52084 -1.250007,0.78125 -2.03125,0.78125 m -2.96875,-18.76953 c -3e-6,-0.92446 0.286455,-1.6406 0.859375,-2.14843 0.585933,-0.5078 1.289057,-0.7617 2.109375,-0.76172 0.794264,2e-5 1.477857,0.26043 2.050781,0.78125 0.572908,0.50783 0.859366,1.21746 0.859375,2.1289 -9e-6,0.72919 -0.312509,1.39976 -0.9375,2.01172 -0.625007,0.612 -1.30209,0.91799 -2.03125,0.91797 -0.794276,2e-5 -1.477869,-0.29295 -2.050781,-0.87891 -0.57292,-0.58592 -0.859378,-1.26951 -0.859375,-2.05078"
         id="path4199"
         inkscape:connector-curvature="0"
         style="fill:#6c6753;fill-opacity:1" />
      <path
         d="m 112.08517,148.01079 -6.17187,0 c -0.9375,1e-5 -1.65365,-0.21484 -2.14844,-0.64453 -0.48177,-0.4427 -0.72265,-1.00911 -0.72265,-1.69922 0,-0.70312 0.23437,-1.26952 0.70312,-1.69922 0.48177,-0.4427 1.20443,-0.66405 2.16797,-0.66406 l 6.17187,0 c 0.96354,10e-6 1.67968,0.22136 2.14844,0.66406 0.48176,0.4297 0.72265,0.9961 0.72266,1.69922 -1e-5,0.69011 -0.23439,1.25652 -0.70313,1.69922 -0.46876,0.42969 -1.19141,0.64454 -2.16797,0.64453"
         id="path4201"
         inkscape:connector-curvature="0"
         style="fill:#6c6753;fill-opacity:1" />
      <path
         d="m 127.35861,145.7061 c -1e-5,2.86459 -0.38412,5.52735 -1.15234,7.98828 -0.75522,2.46094 -1.90756,4.96745 -3.45703,7.51953 -0.8724,1.43229 -1.56251,2.33072 -2.07032,2.69532 -0.50781,0.36457 -1.19792,0.54686 -2.07031,0.54687 -0.65104,-1e-5 -0.97656,-0.17579 -0.97656,-0.52734 0,-0.1172 0.27343,-0.74871 0.82031,-1.89453 0.54687,-1.13282 1.11328,-2.48699 1.69922,-4.0625 0.59895,-1.57553 1.11328,-3.42448 1.54297,-5.54688 0.4427,-2.13541 0.66406,-4.37499 0.66406,-6.71875 0,-2.35676 -0.22136,-4.60285 -0.66406,-6.73828 -0.44271,-2.1354 -0.95704,-3.98435 -1.54297,-5.54688 -0.58594,-1.56247 -1.15235,-2.91664 -1.69922,-4.0625 -0.54688,-1.15882 -0.82031,-1.79033 -0.82031,-1.89453 0,-0.35153 0.32552,-0.52731 0.97656,-0.52734 0.91146,3e-5 1.61458,0.17581 2.10938,0.52734 0.49478,0.33857 1.17187,1.2305 2.03125,2.67578 0.76822,1.27607 1.43879,2.53258 2.01172,3.76954 0.5729,1.237 1.04816,2.47397 1.42578,3.71093 0.39061,1.237 0.68358,2.52606 0.8789,3.86719 0.1953,1.34116 0.29296,2.74741 0.29297,4.21875"
         id="path4203"
         inkscape:connector-curvature="0"
         style="fill:#6c6753;fill-opacity:1" />
    </g>
    <text
       xml:space="preserve"
       style="font-size:40px;font-style:normal;font-variant:normal;font-weight:normal;font-stretch:normal;text-align:center;line-height:100%;letter-spacing:0px;word-spacing:0px;writing-mode:lr-tb;text-anchor:middle;fill:#6c6753;fill-opacity:1;stroke:none;font-family:Arial Rounded MT Bold;-inkscape-font-specification:'Arial Rounded MT Bold,'"
       x="181.73242"
       y="94.362183"
       id="text4205"
       sodipodi:linespacing="100%"
       transform="matrix(0.44725082,0,0,0.44725082,273.17988,105.88019)"><tspan
         sodipodi:role="line"
         x="181.73242"
         y="94.362183"
         id="tspan4209"
         style="font-size:35.77410889px;font-style:normal;font-variant:normal;font-weight:normal;font-stretch:normal;text-align:center;line-height:100%;writing-mode:lr-tb;text-anchor:middle;fill:#6c6753;fill-opacity:1;font-family:Arial Unicode MS;-inkscape-font-specification:Arial Unicode MS">přesuňte</tspan><tspan
         sodipodi:role="line"
         x="181.73242"
         y="130.13629"
         style="font-size:35.77410889px;font-style:normal;font-variant:normal;font-weight:normal;font-stretch:normal;text-align:center;line-height:100%;writing-mode:lr-tb;text-anchor:middle;fill:#6c6753;fill-opacity:1;font-family:Arial Unicode MS;-inkscape-font-specification:Arial Unicode MS"
         id="tspan4213">mě sem...</tspan></text>
    <path
       style="fill:url(#linearGradient4226);fill-opacity:1;fill-rule:evenodd;stroke:none"
       d="M 424.375 210.03125 L 405.375 228.90625 L 405.375 232.90625 L 426.34375 212.0625 L 424.375 210.03125 z M 326.90625 219.5 L 326.90625 223.5 L 405.375 223.5 L 405.375 219.5 L 326.90625 219.5 z "
       id="path4215" />
  </g>
</svg>
