<?xml version="1.0" encoding="UTF-8" standalone="no"?>
<!-- Created with Inkscape (http://www.inkscape.org/) -->

<svg
   xmlns:dc="http://purl.org/dc/elements/1.1/"
   xmlns:cc="http://creativecommons.org/ns#"
   xmlns:rdf="http://www.w3.org/1999/02/22-rdf-syntax-ns#"
   xmlns:svg="http://www.w3.org/2000/svg"
   xmlns="http://www.w3.org/2000/svg"
   xmlns:xlink="http://www.w3.org/1999/xlink"
   version="1.1"
   width="128"
   height="128"
   id="svg2">
  <defs
     id="defs3156">
    <linearGradient
       x1="156.5248"
       y1="349.31342"
       x2="378.98529"
       y2="349.31342"
       id="linearGradient3991"
       xlink:href="#linearGradient3844"
       gradientUnits="userSpaceOnUse" />
    <linearGradient
       id="linearGradient3844">
      <stop
         id="stop3846"
         style="stop-color:#88aa00;stop-opacity:1"
         offset="0" />
      <stop
         id="stop3848"
         style="stop-color:#a2cb00;stop-opacity:1"
         offset="1" />
    </linearGradient>
    <linearGradient
       x1="101.92941"
       y1="247.28851"
       x2="276.81769"
       y2="644.34198"
       id="linearGradient3993"
       xlink:href="#linearGradient3860"
       gradientUnits="userSpaceOnUse" />
    <linearGradient
       id="linearGradient3860">
      <stop
         id="stop3862"
         style="stop-color:#deb821;stop-opacity:1"
         offset="0" />
      <stop
         id="stop3864"
         style="stop-color:#ffdb4d;stop-opacity:1"
         offset="1" />
    </linearGradient>
    <radialGradient
       cx="146.06693"
       cy="542.06665"
       r="80.731079"
       fx="146.06693"
       fy="542.06665"
       id="radialGradient3995"
       xlink:href="#linearGradient3908"
       gradientUnits="userSpaceOnUse" />
    <linearGradient
       id="linearGradient3908">
      <stop
         id="stop3910"
         style="stop-color:#fff6d5;stop-opacity:1"
         offset="0" />
      <stop
         id="stop3912"
         style="stop-color:#fff6d5;stop-opacity:0"
         offset="1" />
    </linearGradient>
    <linearGradient
       x1="-344.80661"
       y1="198.87033"
       x2="-312.4614"
       y2="428.84183"
       id="linearGradient3997"
       xlink:href="#linearGradient3823"
       gradientUnits="userSpaceOnUse" />
    <linearGradient
       id="linearGradient3823">
      <stop
         id="stop3825"
         style="stop-color:#fff6d5;stop-opacity:1"
         offset="0" />
      <stop
         id="stop3827"
         style="stop-color:#ffffff;stop-opacity:1"
         offset="1" />
    </linearGradient>
    <linearGradient
       x1="174.37871"
       y1="380.7229"
       x2="286.8811"
       y2="624.85309"
       id="linearGradient3999"
       xlink:href="#linearGradient3868"
       gradientUnits="userSpaceOnUse" />
    <linearGradient
       id="linearGradient3868">
      <stop
         id="stop3870"
         style="stop-color:#6c6753;stop-opacity:1"
         offset="0" />
      <stop
         id="stop3872"
         style="stop-color:#6c6753;stop-opacity:0"
         offset="1" />
    </linearGradient>
  </defs>
  <metadata
     id="metadata3159">
    <rdf:RDF>
      <cc:Work
         rdf:about="">
        <dc:format>image/svg+xml</dc:format>
        <dc:type
           rdf:resource="http://purl.org/dc/dcmitype/StillImage" />
        <dc:title></dc:title>
      </cc:Work>
    </rdf:RDF>
  </metadata>
  <g
     transform="matrix(0.13745708,0,0,0.13745708,15.520263,-5.3405455)"
     id="layer1">
    <g
       transform="matrix(2.4104831,0,0,2.4104831,-287.7829,-713.36892)"
       id="g3935">
      <path
         d="m 182.84375,312.0625 c -22.22638,0 -40.28125,18.09271 -40.28125,40.3125 l 0,305.6875 c 0,22.21979 18.05487,40.3125 40.28125,40.3125 l 165.71875,0 c 22.22638,0 40.28125,-18.09271 40.28125,-40.3125 l 0,-305.6875 c 0,-22.21979 -18.05487,-40.3125 -40.28125,-40.3125 l -165.71875,0 z"
         id="path3856"
         style="fill:#6c6753;fill-opacity:1;fill-rule:evenodd;stroke:none" />
      <rect
         width="234.28572"
         height="374.28571"
         rx="34.285725"
         ry="34.285725"
         x="148.57143"
         y="318.07648"
         id="rect2984"
         style="fill:url(#linearGradient3991);fill-opacity:1;fill-rule:evenodd;stroke:none" />
      <path
         d="M 257.71875,337.625 C 250.82522,337.625 245,343.3227 245,350.25 c 0,6.9273 5.82522,12.625 12.71875,12.625 l 16,0 c 6.89353,0 12.71875,-5.6977 12.71875,-12.625 0,-6.9273 -5.82522,-12.625 -12.71875,-12.625 l -16,0 z m 8,299.09375 c -13.37104,0 -24.34375,10.97271 -24.34375,24.34375 0,13.37104 10.96021,24.375 24.34375,24.375 13.38354,0 24.34375,-11.00396 24.34375,-24.375 0,-13.37104 -10.97271,-24.34375 -24.34375,-24.34375 z"
         id="path3842"
         style="opacity:0.3;fill:#445500;fill-rule:evenodd;stroke:none" />
      <path
         d="M 257.71875,337.625 C 250.82522,337.625 245,343.3227 245,350.25 c 0,2.51794 0.78295,4.86529 2.09375,6.84375 l 36.5,-14.71875 c -2.35407,-2.88005 -5.94158,-4.75 -9.875,-4.75 l -16,0 z m 8,299.09375 c -13.37104,0 -24.34375,10.97271 -24.34375,24.34375 0,3.3769 0.67686,6.59544 1.9375,9.53125 l 44.96875,-18.5625 c -3.61387,-8.94033 -12.37984,-15.3125 -22.5625,-15.3125 z"
         id="path3890"
         style="opacity:0.8;fill:#f6ffd5;fill-rule:evenodd;stroke:none" />
      <rect
         width="234.28572"
         height="359.9772"
         rx="20.122889"
         ry="20.122889"
         x="148.57143"
         y="332.38498"
         transform="matrix(0.85365854,0,0,0.70992366,38.885016,141.4732)"
         id="rect2986"
         style="fill:url(#linearGradient3993);fill-opacity:1;fill-rule:evenodd;stroke:none" />
      <path
         d="m 226.798,542.06665 a 80.731079,80.731079 0 1 1 -161.462154,0 80.731079,80.731079 0 1 1 161.462154,0 z"
         transform="matrix(1.3860465,0,0,1.3860465,63.258736,-246.11026)"
         id="path3898"
         style="fill:url(#radialGradient3995);fill-opacity:1;fill-rule:evenodd;stroke:none" />
      <path
         d="m 200.0625,377.4375 -34.21875,12.71875 c -0.0666,0.5133 -0.125,1.034 -0.125,1.5625 l 0,2.875 46.1875,-17.15625 -11.84375,0 z m 53.90625,0 -88.25,32.75 0,4.40625 100.0625,-37.15625 -11.8125,0 z m 53.875,0 -142.125,52.75 0,4.40625 153.9375,-57.15625 -11.8125,0 z m 49.0625,1.78125 -191.1875,70.96875 0,4.40625 195.4375,-72.5625 c -1.23166,-1.10851 -2.65049,-2.07385 -4.25,-2.8125 z m 8.8125,16.75 -200,74.21875 0,4.40625 200,-74.25 0,-4.375 z m 0,20 -200,74.21875 0,4.40625 200,-74.25 0,-4.375 z m 0,20 -200,74.21875 0,4.40625 200,-74.25 0,-4.375 z m 0,20 -200,74.21875 0,4.40625 200,-74.25 0,-4.375 z m 0,20 -200,74.21875 0,4.40625 200,-74.25 0,-4.375 z m 0,20 -200,74.21875 0,4.40625 200,-74.25 0,-4.375 z m 0,20 -200,74.21875 0,4.40625 200,-74.25 0,-4.375 z m 0,20 -200,74.21875 0,4.40625 200,-74.25 0,-4.375 z m 0,20 -195.375,72.5 c 1.25027,1.11266 2.69003,2.07835 4.3125,2.8125 0.009,0.004 0.0227,-0.004 0.0312,0 l 191.03125,-70.9375 0,-4.375 z m 0,20 L 212.03125,633 l 11.84375,0 141.84375,-52.65625 0,-4.375 z m 0,20 -99.8125,37.03125 11.84375,0 87.96875,-32.65625 0,-4.375 z m 0,20 L 319.8125,633 l 11.8125,0 33.96875,-12.625 c 0.0748,-0.54328 0.125,-1.09578 0.125,-1.65625 l 0,-2.75 z"
         id="rect3022"
         style="opacity:0.6;fill:#c8ab37;fill-rule:evenodd;stroke:none" />
      <path
         d="m -317.15625,171.90625 c -43.07988,0 -82.34678,13.31531 -111.4375,35.6875 -29.09072,22.37219 -48.1875,54.52054 -48.1875,90.46875 0,35.84417 18.9596,67.73354 47.96875,90.21875 -9.83477,15.86556 -24.39953,29.27967 -38.28125,35.21875 a 14.69333,14.69333 0 0 0 7.03125,28.125 c 38.56306,-3.31102 76.38372,-13.35165 107.34375,-30.5625 11.46852,2.05346 23.34281,3.1875 35.5625,3.1875 43.08179,0 82.37123,-13.30807 111.46875,-35.6875 29.09752,-22.37943 48.1875,-54.5493 48.1875,-90.5 0,-35.9507 -19.0893,-68.09746 -48.1875,-90.46875 -29.0982,-22.37129 -68.38887,-35.6875 -111.46875,-35.6875 z"
         transform="matrix(0.59286114,0,0,0.59286114,453.73464,320.36709)"
         id="path3835"
         style="fill:#deb821;fill-opacity:1;fill-rule:evenodd;stroke:none" />
      <path
         d="m -317.15625,186.59375 c -80.05551,0 -144.9375,49.89277 -144.9375,111.46875 0,34.50017 20.37804,65.36129 52.375,85.8125 -10.62309,23.63537 -30.438,44.07384 -51.59375,53.125 38.822,-3.33325 76.84283,-13.88206 106.09375,-31.3125 12.13537,2.53484 24.88367,3.875 38.0625,3.875 80.05551,0 144.96875,-49.92402 144.96875,-111.5 0,-61.57598 -64.91324,-111.46875 -144.96875,-111.46875 z"
         transform="matrix(0.59286114,0,0,0.59286114,453.73464,320.36709)"
         id="path2988"
         style="fill:url(#linearGradient3997);fill-opacity:1;fill-rule:evenodd;stroke:none" />
      <path
         d="m 257.71875,343.6875 c -3.69323,0 -6.65625,2.92645 -6.65625,6.5625 0,3.63605 2.96302,6.5625 6.65625,6.5625 l 16,0 c 3.69323,0 6.65625,-2.92645 6.65625,-6.5625 0,-3.63605 -2.96302,-6.5625 -6.65625,-6.5625 l -16,0 z m 8,299.09375 c -10.09813,0 -18.28125,8.18312 -18.28125,18.28125 0,10.09813 8.18312,18.3125 18.28125,18.3125 10.09813,0 18.28125,-8.21437 18.28125,-18.3125 0,-10.09813 -8.18312,-18.28125 -18.28125,-18.28125 z"
         id="path3018"
         style="fill:#445500;fill-rule:evenodd;stroke:none" />
      <path
         d="m 182.90625,377.4375 c -9.51665,0 -17.1875,6.36696 -17.1875,14.28125 l 0,227 c 0,7.91429 7.67085,14.28125 17.1875,14.28125 l 165.625,0 c 9.51665,0 17.1875,-6.36696 17.1875,-14.28125 l 0,-227 c 0,-7.91429 -7.67085,-14.28125 -17.1875,-14.28125 l -165.625,0 z m -0.0312,4.6875 165.65625,0 c 6.48845,0 11.53125,4.19779 11.53125,9.59375 l 0,227 c 0,5.39596 -5.0428,9.59375 -11.53125,9.59375 l -165.65625,0 c -6.48845,0 -11.53125,-4.19779 -11.53125,-9.59375 l 0,-227 c 0,-5.39596 5.0428,-9.59375 11.53125,-9.59375 z"
         id="rect3812"
         style="opacity:0.6;fill:url(#linearGradient3999);fill-opacity:1;fill-rule:evenodd;stroke:none" />
      <rect
         width="24.126966"
         height="24.126966"
         rx="0"
         ry="0"
         x="248.09805"
         y="644.70752"
         transform="matrix(0.56603774,0,0,0.56603774,118.4575,288.65564)"
         id="rect3881"
         style="opacity:0.5;fill:#91b600;fill-opacity:1;fill-rule:evenodd;stroke:none" />
      <path
         d="m 223.65625,461.28125 c -3.87189,0 -7,3.12811 -7,7 0,3.87189 3.12811,7 7,7 l 85.03125,0 c 3.87189,0 6.96875,-3.12811 6.96875,-7 0,-3.87189 -3.09686,-7 -6.96875,-7 z m 0,30 c -3.87189,0 -7,3.12811 -7,7 0,3.87189 3.12811,7 7,7 l 85.03125,0 c 3.87189,0 6.96875,-3.12811 6.96875,-7 0,-3.87189 -3.09686,-7 -6.96875,-7 z m 0,30 c -3.87189,0 -7,3.12811 -7,7 0,3.87189 3.12811,7 7,7 l 55.03125,0 c 3.87189,0 6.96875,-3.12811 6.96875,-7 0,-3.87189 -3.09686,-7 -6.96875,-7 z"
         transform="matrix(0.9004914,0,0,0.9004914,26.042873,49.583269)"
         id="rect3883"
         style="fill:#6c6753;fill-opacity:1;fill-rule:evenodd;stroke:none" />
      <path
         d="m 182.84375,318.0625 c -18.99429,0 -34.28125,15.31821 -34.28125,34.3125 l 0,305.6875 c 0,18.99429 15.28696,34.3125 34.28125,34.3125 l 165.71875,0 c 18.99429,0 34.28125,-15.31821 34.28125,-34.3125 l 0,-305.6875 c 0,-18.99429 -15.28696,-34.3125 -34.28125,-34.3125 l -165.71875,0 z m 0,6.375 165.71875,0 c 15.56913,0 27.90625,12.36138 27.90625,27.9375 l 0,305.6875 c 0,15.57612 -12.33712,27.9375 -27.90625,27.9375 l -165.71875,0 c -15.56913,0 -27.90625,-12.36138 -27.90625,-27.9375 l 0,-305.6875 c 0,-15.57612 12.33712,-27.9375 27.90625,-27.9375 z"
         id="rect3930"
         style="opacity:0.3;fill:#deebaa;fill-opacity:1;fill-rule:evenodd;stroke:none" />
    </g>
  </g>
</svg>
