<?xml version="1.0" encoding="UTF-8" standalone="no"?>
<!-- Created with Inkscape (http://www.inkscape.org/) -->
<svg
   xmlns:svg="http://www.w3.org/2000/svg"
   xmlns="http://www.w3.org/2000/svg"
   xmlns:xlink="http://www.w3.org/1999/xlink"
   version="1.0"
   width="128"
   height="128"
   id="svg2">
  <defs
     id="defs3542">
    <linearGradient
       id="linearGradient4300">
      <stop
         id="stop4302"
         style="stop-color:#000000;stop-opacity:1"
         offset="0" />
      <stop
         id="stop4304"
         style="stop-color:#000000;stop-opacity:0"
         offset="1" />
    </linearGradient>
    <linearGradient
       id="linearGradient4314">
      <stop
         id="stop4316"
         style="stop-color:#000000;stop-opacity:1"
         offset="0" />
      <stop
         id="stop4318"
         style="stop-color:#000000;stop-opacity:0"
         offset="1" />
    </linearGradient>
    <linearGradient
       id="linearGradient4328">
      <stop
         id="stop4330"
         style="stop-color:#ffffff;stop-opacity:1"
         offset="0" />
      <stop
         id="stop4332"
         style="stop-color:#ffffff;stop-opacity:0"
         offset="1" />
    </linearGradient>
    <linearGradient
       id="linearGradient4346">
      <stop
         id="stop4348"
         style="stop-color:#ffffff;stop-opacity:1"
         offset="0" />
      <stop
         id="stop4350"
         style="stop-color:#ffffff;stop-opacity:0"
         offset="1" />
    </linearGradient>
    <linearGradient
       id="linearGradient4364">
      <stop
         id="stop4366"
         style="stop-color:#ffffff;stop-opacity:1"
         offset="0" />
      <stop
         id="stop4368"
         style="stop-color:#ffffff;stop-opacity:0"
         offset="1" />
    </linearGradient>
    <linearGradient
       id="linearGradient4378">
      <stop
         id="stop4380"
         style="stop-color:#000000;stop-opacity:1"
         offset="0" />
      <stop
         id="stop4382"
         style="stop-color:#000000;stop-opacity:0"
         offset="1" />
    </linearGradient>
    <linearGradient
       id="linearGradient4386">
      <stop
         id="stop4388"
         style="stop-color:#aed855;stop-opacity:1"
         offset="0" />
      <stop
         id="stop4390"
         style="stop-color:#aed855;stop-opacity:0"
         offset="1" />
    </linearGradient>
    <linearGradient
       id="linearGradient4401">
      <stop
         id="stop4403"
         style="stop-color:#000000;stop-opacity:1"
         offset="0" />
      <stop
         id="stop4405"
         style="stop-color:#000000;stop-opacity:0"
         offset="1" />
    </linearGradient>
    <linearGradient
       id="linearGradient4431">
      <stop
         id="stop4433"
         style="stop-color:#ffffff;stop-opacity:1"
         offset="0" />
      <stop
         id="stop4435"
         style="stop-color:#ffffff;stop-opacity:0"
         offset="1" />
    </linearGradient>
    <linearGradient
       id="linearGradient4439">
      <stop
         id="stop4441"
         style="stop-color:#ffffff;stop-opacity:1"
         offset="0" />
      <stop
         id="stop4443"
         style="stop-color:#ffffff;stop-opacity:0"
         offset="1" />
    </linearGradient>
    <linearGradient
       id="linearGradient4447">
      <stop
         id="stop4449"
         style="stop-color:#ffffff;stop-opacity:1"
         offset="0" />
      <stop
         id="stop4451"
         style="stop-color:#ffffff;stop-opacity:0"
         offset="1" />
    </linearGradient>
    <linearGradient
       id="linearGradient4708">
      <stop
         id="stop4710"
         style="stop-color:#98de00;stop-opacity:1"
         offset="0" />
      <stop
         id="stop4712"
         style="stop-color:#307f00;stop-opacity:1"
         offset="1" />
    </linearGradient>
    <linearGradient
       id="linearGradient4719">
      <stop
         id="stop4721"
         style="stop-color:#000000;stop-opacity:1"
         offset="0" />
      <stop
         id="stop4723"
         style="stop-color:#000000;stop-opacity:0"
         offset="1" />
    </linearGradient>
    <linearGradient
       id="linearGradient4729">
      <stop
         id="stop4731"
         style="stop-color:#ffffff;stop-opacity:1"
         offset="0" />
      <stop
         id="stop4733"
         style="stop-color:#ffffff;stop-opacity:0"
         offset="1" />
    </linearGradient>
    <linearGradient
       id="linearGradient5021">
      <stop
         id="stop5023"
         style="stop-color:#000000;stop-opacity:1"
         offset="0" />
      <stop
         id="stop5025"
         style="stop-color:#000000;stop-opacity:0"
         offset="1" />
    </linearGradient>
    <linearGradient
       id="linearGradient5029">
      <stop
         id="stop5031"
         style="stop-color:#000000;stop-opacity:1"
         offset="0" />
      <stop
         id="stop5033"
         style="stop-color:#000000;stop-opacity:0"
         offset="1" />
    </linearGradient>
    <linearGradient
       id="linearGradient5039">
      <stop
         id="stop5041"
         style="stop-color:#ffffff;stop-opacity:1"
         offset="0" />
      <stop
         id="stop5043"
         style="stop-color:#ffffff;stop-opacity:0"
         offset="1" />
    </linearGradient>
    <linearGradient
       id="linearGradient5049">
      <stop
         id="stop5051"
         style="stop-color:#ffffff;stop-opacity:1"
         offset="0" />
      <stop
         id="stop5053"
         style="stop-color:#ffffff;stop-opacity:0"
         offset="1" />
    </linearGradient>
    <linearGradient
       id="linearGradient5063">
      <stop
         id="stop5065"
         style="stop-color:#000000;stop-opacity:1"
         offset="0" />
      <stop
         id="stop5067"
         style="stop-color:#000000;stop-opacity:0"
         offset="1" />
    </linearGradient>
    <linearGradient
       id="linearGradient5159">
      <stop
         id="stop5161"
         style="stop-color:#000000;stop-opacity:1"
         offset="0" />
      <stop
         id="stop5163"
         style="stop-color:#000000;stop-opacity:0"
         offset="1" />
    </linearGradient>
    <linearGradient
       id="linearGradient5326">
      <stop
         id="stop5328"
         style="stop-color:#000000;stop-opacity:1"
         offset="0" />
      <stop
         id="stop5330"
         style="stop-color:#000000;stop-opacity:0"
         offset="1" />
    </linearGradient>
    <linearGradient
       x1="2258.2542"
       y1="180.11626"
       x2="2370.4519"
       y2="162.09544"
       id="linearGradient7936"
       xlink:href="#linearGradient5159"
       gradientUnits="userSpaceOnUse"
       gradientTransform="matrix(0.7206926,0,0,0.7206926,-493.38647,245.70967)" />
    <linearGradient
       x1="1558.1888"
       y1="296.90485"
       x2="1558.1888"
       y2="-11.677656"
       id="linearGradient7938"
       xlink:href="#linearGradient5063"
       gradientUnits="userSpaceOnUse"
       gradientTransform="matrix(0.6371632,0,0,0.6371632,172.49042,275.12056)" />
    <linearGradient
       x1="1539.4447"
       y1="155.43054"
       x2="1822.8708"
       y2="-91.043472"
       id="linearGradient7940"
       xlink:href="#linearGradient5029"
       gradientUnits="userSpaceOnUse"
       gradientTransform="matrix(0.6371632,0,0,0.6371632,172.49042,275.12056)" />
    <linearGradient
       x1="1755.2354"
       y1="278.59183"
       x2="1537.4004"
       y2="52.092705"
       id="linearGradient7942"
       xlink:href="#linearGradient5021"
       gradientUnits="userSpaceOnUse"
       gradientTransform="matrix(0.6371632,0,0,0.6371632,172.49042,275.12056)" />
    <linearGradient
       x1="1551.5969"
       y1="112.67323"
       x2="1551.5969"
       y2="-4.5263557"
       id="linearGradient7944"
       xlink:href="#linearGradient5039"
       gradientUnits="userSpaceOnUse"
       gradientTransform="matrix(0.6371632,0,0,0.6371632,172.49042,275.12056)" />
    <linearGradient
       x1="1366.8241"
       y1="276.81378"
       x2="1347.9312"
       y2="211.77881"
       id="linearGradient7946"
       xlink:href="#linearGradient5049"
       gradientUnits="userSpaceOnUse"
       gradientTransform="matrix(0.6371632,0,0,0.6371632,171.86842,275.12056)" />
    <linearGradient
       x1="1366.8241"
       y1="276.81378"
       x2="1347.9312"
       y2="211.77881"
       id="linearGradient7948"
       xlink:href="#linearGradient5049"
       gradientUnits="userSpaceOnUse"
       gradientTransform="matrix(-0.6371632,0,0,0.6371632,2147.1238,275.12056)" />
    <linearGradient
       x1="1120"
       y1="118.86841"
       x2="1354.3909"
       y2="305.1163"
       id="linearGradient7950"
       xlink:href="#linearGradient4708"
       gradientUnits="userSpaceOnUse"
       gradientTransform="matrix(0.7206926,0,0,0.7206926,167.41891,245.70967)" />
    <linearGradient
       x1="936.64093"
       y1="-185.58652"
       x2="1354.9033"
       y2="108.71875"
       id="linearGradient7952"
       xlink:href="#linearGradient4328"
       gradientUnits="userSpaceOnUse"
       gradientTransform="matrix(0.7206926,0,0,0.7206926,167.41891,245.70967)" />
    <linearGradient
       x1="1465.5024"
       y1="-84.734062"
       x2="1120.8306"
       y2="82.351944"
       id="linearGradient7954"
       xlink:href="#linearGradient4364"
       gradientUnits="userSpaceOnUse"
       gradientTransform="matrix(0.7206926,0,0,0.7206926,167.41891,241.38551)" />
    <linearGradient
       x1="1500.4177"
       y1="441.52582"
       x2="1166.5809"
       y2="222.25296"
       id="linearGradient7956"
       xlink:href="#linearGradient4300"
       gradientUnits="userSpaceOnUse"
       gradientTransform="matrix(0.7206926,0,0,0.7206926,167.41891,245.70967)" />
    <linearGradient
       x1="1419.6002"
       y1="-156.32472"
       x2="1345.7621"
       y2="-102.73243"
       id="linearGradient7958"
       xlink:href="#linearGradient4314"
       gradientUnits="userSpaceOnUse"
       gradientTransform="matrix(0.7206926,0,0,0.7206926,167.41891,245.70967)" />
    <linearGradient
       x1="1165.9398"
       y1="-92.743416"
       x2="1172.5903"
       y2="-49.383118"
       id="linearGradient7960"
       xlink:href="#linearGradient4346"
       gradientUnits="userSpaceOnUse"
       gradientTransform="matrix(0.7206926,0,0,0.7206926,167.41891,245.70967)" />
    <linearGradient
       x1="1215.0303"
       y1="166.20366"
       x2="1275.1283"
       y2="235.16872"
       id="linearGradient7962"
       xlink:href="#linearGradient4378"
       gradientUnits="userSpaceOnUse" />
    <linearGradient
       x1="1262.0826"
       y1="230.90627"
       x2="1238.8339"
       y2="193.73111"
       id="linearGradient7964"
       xlink:href="#linearGradient4386"
       gradientUnits="userSpaceOnUse" />
    <linearGradient
       x1="1337.0253"
       y1="267.08102"
       x2="1326.8132"
       y2="254.59958"
       id="linearGradient7966"
       xlink:href="#linearGradient4401"
       gradientUnits="userSpaceOnUse"
       gradientTransform="translate(-80.937552,-54.848158)" />
    <linearGradient
       x1="1189.4185"
       y1="286.13281"
       x2="1179.8281"
       y2="234.90617"
       id="linearGradient7968"
       xlink:href="#linearGradient4431"
       gradientUnits="userSpaceOnUse" />
    <linearGradient
       x1="1328.6909"
       y1="283.05496"
       x2="1316.9702"
       y2="229.57007"
       id="linearGradient7970"
       xlink:href="#linearGradient4447"
       gradientUnits="userSpaceOnUse" />
    <linearGradient
       x1="1253.4517"
       y1="289.8681"
       x2="1250"
       y2="235.9734"
       id="linearGradient7972"
       xlink:href="#linearGradient4439"
       gradientUnits="userSpaceOnUse" />
    <linearGradient
       x1="1189.4185"
       y1="286.13281"
       x2="1179.8281"
       y2="234.90617"
       id="linearGradient7974"
       xlink:href="#linearGradient4431"
       gradientUnits="userSpaceOnUse" />
    <linearGradient
       x1="1328.6909"
       y1="283.05496"
       x2="1316.9702"
       y2="229.57007"
       id="linearGradient7976"
       xlink:href="#linearGradient4447"
       gradientUnits="userSpaceOnUse" />
    <linearGradient
       x1="1253.4517"
       y1="289.8681"
       x2="1250"
       y2="235.9734"
       id="linearGradient7978"
       xlink:href="#linearGradient4439"
       gradientUnits="userSpaceOnUse" />
    <linearGradient
       x1="1189.4185"
       y1="286.13281"
       x2="1179.8281"
       y2="234.90617"
       id="linearGradient7980"
       xlink:href="#linearGradient4431"
       gradientUnits="userSpaceOnUse" />
    <linearGradient
       x1="1328.6909"
       y1="283.05496"
       x2="1316.9702"
       y2="229.57007"
       id="linearGradient7982"
       xlink:href="#linearGradient4447"
       gradientUnits="userSpaceOnUse" />
    <linearGradient
       x1="1253.4517"
       y1="289.8681"
       x2="1250"
       y2="235.9734"
       id="linearGradient7984"
       xlink:href="#linearGradient4439"
       gradientUnits="userSpaceOnUse" />
    <linearGradient
       x1="1189.4185"
       y1="286.13281"
       x2="1179.8281"
       y2="234.90617"
       id="linearGradient7986"
       xlink:href="#linearGradient4431"
       gradientUnits="userSpaceOnUse"
       gradientTransform="translate(0,-62.377422)" />
    <linearGradient
       x1="1328.6909"
       y1="283.05496"
       x2="1316.9702"
       y2="229.57007"
       id="linearGradient7988"
       xlink:href="#linearGradient4447"
       gradientUnits="userSpaceOnUse"
       gradientTransform="translate(0,-62.377422)" />
    <linearGradient
       x1="1594.0804"
       y1="-16.695463"
       x2="1690.8281"
       y2="91.608948"
       id="linearGradient7990"
       xlink:href="#linearGradient4719"
       gradientUnits="userSpaceOnUse"
       gradientTransform="matrix(0.7206926,0,0,0.7206926,-150.60286,245.70967)" />
    <linearGradient
       x1="1791.686"
       y1="141.16743"
       x2="1726.7903"
       y2="65.376602"
       id="linearGradient7992"
       xlink:href="#linearGradient4729"
       gradientUnits="userSpaceOnUse"
       gradientTransform="matrix(0.7206926,0,0,0.7206926,-150.60286,245.70967)" />
    <radialGradient
       cx="1498.3468"
       cy="259.53561"
       r="66.222908"
       fx="1498.3468"
       fy="259.53561"
       id="radialGradient7994"
       xlink:href="#linearGradient5326"
       gradientUnits="userSpaceOnUse" />
  </defs>
  <g
     id="layer1">
    <g
       transform="matrix(0.3107298,0,0,0.3107298,-290.66964,-41.64037)"
       id="g7282">
      <path
         d="M 1131.4652,134.00832 C 1128.5417,134.00897 1125.6273,134.22222 1122.7944,134.66145 C 1122.3624,134.72851 1122.2197,134.77196 1122.344,134.75153 C 1120.5691,135.04271 1118.8049,135.41678 1117.0739,135.90014 C 1117.5247,135.77422 1117.487,135.79682 1116.9613,135.94518 C 1116.788,135.99396 1116.5462,136.04214 1116.1955,136.14787 C 1116.4242,136.07885 1116.3553,136.10399 1115.9928,136.21544 C 1114.6038,136.64177 1114.5645,136.66233 1115.8578,136.26048 C 1117.189,135.84701 1117.0819,135.85461 1115.5875,136.32805 C 1115.5519,136.33933 1115.5548,136.36171 1115.5199,136.37309 C 1115.4804,136.38598 1115.4684,136.38262 1115.4298,136.39561 C 1115.5109,136.36502 1115.3412,136.41083 1114.6641,136.64335 C 1113.8175,136.93392 1113.7589,136.97127 1114.5065,136.71092 C 1114.098,136.85289 1113.7134,136.99405 1113.3353,137.13883 C 1113.1898,137.19449 1113.0201,137.26053 1112.8173,137.34152 C 1112.5896,137.43239 1112.4272,137.50039 1112.3218,137.54422 C 1112.1063,137.63387 1111.9505,137.67755 1111.8939,137.70187 C 1113.2569,137.11526 1113.222,137.13265 1111.8039,137.74691 C 1111.5526,137.85571 1111.2086,138.00079 1110.7453,138.21987 C 1111.7083,137.76509 1111.647,137.78134 1110.5876,138.28743 C 1109.8888,138.62198 1109.5238,138.82962 1109.4841,138.85047 C 1109.4788,138.85323 1109.2243,138.97297 1108.7184,139.25586 C 1107.4953,139.9396 1107.4821,139.95518 1108.6508,139.3009 C 1108.6433,139.3084 1108.6358,139.3159 1108.6283,139.32343 C 1107.9192,139.72325 1107.3868,140.08245 1107.0293,140.31438 C 1107.2456,140.17441 1107.068,140.25176 1106.5112,140.62968 C 1106.423,140.68962 1106.256,140.80232 1105.9932,140.99003 C 1105.7166,141.18704 1105.4161,141.41417 1105.0923,141.66568 C 1104.5295,142.10379 1103.9901,142.55973 1103.4933,143.01698 C 1101.523,144.8278 1101.5098,144.90681 1103.3582,143.17463 C 1103.2149,143.30894 1102.8535,143.60583 1102.3448,144.14306 C 1101.9245,144.58666 1101.501,145.08159 1101.0836,145.60697 C 1102.3456,144.02107 1102.2844,144.05211 1100.9484,145.76462 C 1100.6046,146.20629 1100.4359,146.45507 1100.4304,146.46279 C 1100.2464,146.71953 1100.0709,147.00201 1099.8673,147.31861 C 1100.022,147.07872 1100.0019,147.09084 1099.7998,147.4087 C 1099.7922,147.41619 1099.7847,147.42369 1099.7772,147.43122 C 1099.4471,147.95225 1099.3319,148.20477 1099.3494,148.17443 C 1099.9355,147.15518 1099.8573,147.22315 1099.1917,148.42217 C 1099.1404,148.5145 1098.935,148.85757 1098.6737,149.3906 C 1098.6545,149.42985 1098.6488,149.41634 1098.6287,149.45817 C 1098.6286,149.47318 1098.6286,149.4882 1098.6287,149.50321 C 1098.5576,149.65194 1098.4737,149.833 1098.381,150.04373 C 1098.3179,150.18576 1098.2519,150.34806 1098.1557,150.58425 C 1098.1482,150.59174 1098.1407,150.59925 1098.1332,150.60677 C 1097.7398,151.58068 1097.7309,151.6856 1098.0431,150.87703 C 1097.6972,151.76225 1097.4382,152.62291 1097.2323,153.51206 C 1097.4418,152.61102 1097.402,152.69431 1097.1647,153.78232 C 1097.1647,153.78983 1097.1647,153.79733 1097.1647,153.80484 C 1096.9154,154.96202 1096.9032,155.06838 1097.0972,154.09762 C 1097.0145,154.50982 1096.9482,154.91464 1096.8945,155.31379 C 1096.8478,155.68731 1096.8252,156.06345 1096.8269,156.43988 C 1096.8237,157.27607 1096.8033,158.34628 1096.7819,159.52534 C 1096.7819,159.53285 1096.7819,159.54035 1096.7819,159.54786 C 1096.779,159.72063 1096.7674,159.99357 1096.7594,160.42621 C 1096.694,163.73801 1096.6037,167.49438 1096.5792,170.2006 C 1096.5791,170.23063 1096.5791,170.26066 1096.5792,170.29069 C 1096.5792,171.60546 1096.5222,172.62064 1096.444,173.51128 L 996.22278,173.51128 C 979.95365,173.51128 965.84105,185.91607 965.84105,202.00116 L 965.84105,488.2963 C 965.84249,488.80224 965.88768,489.3071 965.97618,489.80525 C 966.05733,490.26655 966.16205,490.77275 966.29148,491.3142 C 966.51403,492.24745 966.76592,493.12901 967.05722,493.94923 C 966.77233,493.14393 966.79229,493.26487 967.16979,494.28705 C 967.37209,494.83407 967.50347,495.12314 967.53014,495.18792 C 967.67557,495.54037 967.83535,495.90763 968.00313,496.26896 C 967.88306,496.01055 967.95347,496.23099 968.27339,496.87704 C 968.65233,497.64595 968.97051,498.13203 969.12921,498.40851 C 969.37158,498.8295 969.48199,499.01871 969.46707,498.99408 C 969.54476,499.12225 969.71095,499.40748 969.98503,499.82738 C 970.08182,499.97576 970.10323,499.99427 970.05256,499.91746 C 969.76277,499.47747 969.84464,499.62209 970.32282,500.32285 C 970.90024,501.1705 971.50483,501.98315 972.14711,502.75519 C 972.42977,503.09421 972.49657,503.17567 972.34984,503.00293 C 972.04621,502.64496 972.12189,502.74778 972.59754,503.29571 C 973.11471,503.89058 973.436,504.21885 973.52097,504.30919 C 975.56053,506.48203 977.89752,508.40805 980.43508,510.16481 C 980.50693,510.21469 980.48077,510.18596 980.54772,510.23238 C 980.52545,510.22113 980.02522,509.89568 980.61525,510.29994 C 980.78576,510.41686 980.90763,510.48809 981.06568,510.59272 C 981.42401,510.82995 981.78407,511.07979 982.07919,511.26837 C 982.09822,511.28066 982.10478,511.27853 982.12416,511.29089 C 982.68501,511.64875 983.21918,511.99184 983.74572,512.30437 C 1008.4699,526.96937 1050.7603,530.82286 1089.3497,527.86682 C 1108.6445,526.38881 1126.833,523.0344 1141.3523,517.39426 C 1155.8715,511.75412 1168.1908,503.53976 1170.6078,489.82777 C 1170.6976,489.32222 1170.7429,488.80976 1170.743,488.2963 L 1170.743,480.23355 L 1302.0441,480.23355 C 1310.1679,480.23355 1316.9762,473.42576 1316.976,465.3017 L 1316.976,259.72413 C 1316.976,251.60016 1310.168,244.79228 1302.0441,244.79228 L 1170.743,244.79228 L 1170.743,202.00116 C 1170.743,199.09061 1170.2707,196.27597 1169.4142,193.64563 C 1169.184,192.9327 1168.9737,192.42812 1168.8511,192.11416 C 1168.8511,192.10665 1168.8511,192.09915 1168.8511,192.09164 C 1168.6979,191.70059 1168.501,191.25748 1168.2881,190.78538 C 1168.2858,190.7785 1168.2656,190.67281 1168.2656,190.67277 C 1168.2581,190.66525 1168.2506,190.65775 1168.243,190.65025 C 1168.2356,190.6277 1168.2281,190.60518 1168.2205,190.58269 C 1168.2205,190.57518 1168.2205,190.56767 1168.2205,190.56017 C 1167.9965,190.07711 1167.741,189.58517 1167.4774,189.09626 C 1167.3211,188.80135 1167.1482,188.51562 1166.9593,188.24044 C 1166.6125,187.74589 1166.3941,187.41712 1166.2837,187.22696 C 1166.2801,187.21959 1166.2386,187.1369 1166.2386,187.13688 C 1166.2391,187.13778 1166.2376,187.17981 1166.2386,187.18192 C 1166.2347,187.17488 1166.2197,187.1433 1166.2162,187.13688 C 1166.2162,187.13702 1166.2386,187.13667 1166.2386,187.13688 C 1166.2386,187.12937 1166.2386,187.12186 1166.2386,187.11435 C 1166.1491,186.95205 1166.0605,186.78907 1165.9909,186.6414 C 1165.974,186.60564 1165.9633,186.58745 1165.9459,186.55131 C 1165.9125,186.48037 1165.9104,186.45577 1165.8332,186.25853 C 1165.8281,186.24542 1165.8383,186.24891 1165.8332,186.23601 C 1165.8715,186.33601 1165.8162,186.21906 1165.7206,185.89819 C 1165.7206,185.89068 1165.7206,185.88317 1165.7206,185.87566 C 1165.6856,185.75563 1165.6407,185.65245 1165.6305,185.6054 C 1165.6278,185.59094 1165.6333,185.59716 1165.6305,185.58288 C 1165.6851,185.85936 1165.6602,185.82721 1165.608,185.40271 C 1165.5935,185.28473 1165.5971,185.31786 1165.5855,185.22254 C 1165.5843,185.18527 1165.5855,185.22417 1165.5855,185.10993 L 1165.5855,180.83082 L 1165.5855,156.48492 C 1165.5837,156.20659 1165.5687,155.92851 1165.5404,155.65162 C 1165.0504,150.47008 1162.3431,145.9239 1158.9641,142.81428 C 1158.9641,142.81427 1158.8636,142.73222 1158.8515,142.72419 C 1157.1958,141.20389 1155.4473,140.0087 1153.4688,138.94056 C 1153.4688,138.94056 1153.4466,138.94071 1153.4463,138.94056 C 1153.4462,138.94049 1153.4466,138.91813 1153.4463,138.91804 C 1150.7677,137.47497 1147.8649,136.39038 1144.8205,135.60736 C 1144.7898,135.59933 1144.7833,135.61503 1144.753,135.60736 C 1143.0625,135.17529 1141.3314,134.82623 1139.573,134.57136 C 1139.5585,134.56926 1139.5649,134.57344 1139.5505,134.57136 C 1137.7899,134.3171 1135.9893,134.13788 1134.1903,134.05336 C 1133.3674,134.01519 1133.365,134.01631 1134.1678,134.05336 C 1133.2059,134.00861 1132.3079,134.00813 1131.4652,134.00832 z M 1155.676,140.96751 C 1156.1512,141.12037 1156.6221,141.26037 1156.6219,141.26029 C 1156.6219,141.26029 1156.6654,141.28181 1156.667,141.28281 C 1156.6189,141.267 1156.1693,141.12955 1155.676,140.96751 z M 1166.9818,190.62773 C 1166.9481,191.53176 1166.687,191.94553 1166.6891,191.93399 C 1166.6911,191.92285 1166.9368,191.4872 1166.9818,190.62773 z"
         id="path7284"
         style="fill:#000000;fill-opacity:1;fill-rule:evenodd;stroke:none;stroke-width:1px;stroke-linecap:butt;stroke-linejoin:miter;marker:none;marker-start:none;marker-mid:none;marker-end:none;stroke-miterlimit:4;stroke-dashoffset:0;stroke-opacity:1;visibility:visible;display:inline;overflow:visible;enable-background:accumulate" />
      <path
         d="M 1016.9384,253.57037 L 1302.053,253.57037 C 1305.4709,253.57037 1308.2225,256.32197 1308.2225,259.73987 L 1308.2225,465.32144 C 1308.2225,468.73934 1305.4709,471.49094 1302.053,471.49094 L 1016.9384,471.49094 C 1013.5205,471.49094 1010.7689,468.73934 1010.7689,465.32144 L 1010.7689,259.73987 C 1010.7689,256.32197 1013.5205,253.57037 1016.9384,253.57037 z"
         id="path7286"
         style="fill:#f2f2f2;fill-opacity:1;fill-rule:evenodd;stroke:none;stroke-width:1px;stroke-linecap:butt;stroke-linejoin:miter;marker:none;marker-start:none;marker-mid:none;marker-end:none;stroke-miterlimit:4;stroke-dashoffset:0;stroke-opacity:1;visibility:visible;display:inline;overflow:visible;enable-background:accumulate" />
      <path
         d="M 1016.9384,253.57037 L 1302.053,253.57037 C 1305.4709,253.57037 1308.2225,256.32197 1308.2225,259.73987 L 1308.2225,465.32144 C 1308.2225,468.73934 1305.4709,471.49094 1302.053,471.49094 L 1016.9384,471.49094 C 1013.5205,471.49094 1010.7689,468.73934 1010.7689,465.32144 L 1010.7689,259.73987 C 1010.7689,256.32197 1013.5205,253.57037 1016.9384,253.57037 z"
         id="path7288"
         style="opacity:0.2;fill:url(#linearGradient7936);fill-opacity:1;fill-rule:evenodd;stroke:none;stroke-width:1px;stroke-linecap:butt;stroke-linejoin:miter;marker:none;marker-start:none;marker-mid:none;marker-end:none;stroke-miterlimit:4;stroke-dashoffset:0;stroke-opacity:1;visibility:visible;display:inline;overflow:visible;enable-background:accumulate" />
      <path
         d="M 1020.5348,263.33304 L 1020.5348,461.72973 L 1290.1002,461.72973 C 1293.9145,460.43884 1299.3052,461.35493 1298.4573,453.53701 L 1298.4573,263.33304 L 1020.5348,263.33304 z"
         id="path7290"
         style="opacity:0.1;fill:url(#linearGradient7938);fill-opacity:1;fill-rule:evenodd;stroke:none;stroke-width:1px;stroke-linecap:butt;stroke-linejoin:miter;marker:none;marker-start:none;marker-mid:none;marker-end:none;stroke-miterlimit:4;stroke-dashoffset:0;stroke-opacity:1;visibility:visible;display:inline;overflow:visible;enable-background:accumulate" />
      <path
         d="M 1018.2544,263.47241 L 1159.4857,374.11979 L 1300.7368,263.47241 L 1297.7666,261.07497 L 1159.4857,351.38104 L 1018.2544,263.47241 z"
         id="path7292"
         style="opacity:0.6;fill:url(#linearGradient7940);fill-opacity:1;fill-rule:evenodd;stroke:none;stroke-width:1px;stroke-linecap:butt;stroke-linejoin:miter;stroke-opacity:1" />
      <path
         d="M 1136.2491,370.15743 L 1020.9026,452.27185 L 1021.3208,461.80939 L 1029.584,461.80939 L 1136.2491,370.15743 z M 1172.5552,361.2439 L 1166.9675,365.32433 L 1289.4072,461.80939 C 1296.3971,462.27122 1300.0511,459.76778 1298.0886,452.27185 L 1172.5552,361.2439 z"
         id="path7294"
         style="opacity:0.5;fill:url(#linearGradient7942);fill-opacity:1;fill-rule:evenodd;stroke:none;stroke-width:1px;stroke-linecap:butt;stroke-linejoin:miter;stroke-opacity:1" />
      <path
         d="M 1021.3111,264.73554 L 1159.6078,351.42147 L 1291.187,266.03537 L 1021.3111,264.73554 z"
         id="path7296"
         style="fill:url(#linearGradient7944);fill-opacity:1;fill-rule:evenodd;stroke:none;stroke-width:1px;stroke-linecap:butt;stroke-linejoin:miter;stroke-opacity:1" />
      <path
         d="M 1020.9978,451.49611 L 1020.5349,412.60469 L 1138.135,368.62035 L 1020.9978,451.49611 z"
         id="path7298"
         style="fill:url(#linearGradient7946);fill-opacity:1;fill-rule:evenodd;stroke:none;stroke-width:1px;stroke-linecap:butt;stroke-linejoin:miter;stroke-opacity:1" />
      <path
         d="M 1297.9944,451.49611 L 1298.4574,412.60469 L 1180.8572,368.62035 L 1297.9944,451.49611 z"
         id="path7300"
         style="fill:url(#linearGradient7948);fill-opacity:1;fill-rule:evenodd;stroke:none;stroke-width:1px;stroke-linecap:butt;stroke-linejoin:miter;stroke-opacity:1" />
      <path
         d="M 1105.5805,156.50144 C 1105.5659,160.24222 1105.3774,166.5587 1105.3437,170.29949 C 1105.3437,179.48553 1103.5334,182.28872 1099.287,182.28872 L 996.21537,182.28872 C 984.23746,182.28872 974.59459,191.08639 974.59459,202.01768 L 974.59459,488.31282 C 982.15192,531.30147 1154.6723,529.74003 1161.9747,488.31282 L 1161.9747,202.01768 C 1161.9747,198.88137 1161.1782,195.9189 1159.7614,193.28981 C 1158.0094,190.79172 1156.8172,188.09925 1156.8172,185.13505 L 1156.8172,180.8419 L 1156.8172,156.50144 C 1155.0861,138.19935 1108.0374,138.2211 1105.5805,156.50144 z"
         id="path7302"
         style="fill:url(#linearGradient7950);fill-opacity:1;fill-rule:evenodd;stroke:none;stroke-width:1px;stroke-linecap:butt;stroke-linejoin:miter;marker:none;marker-start:none;marker-mid:none;marker-end:none;stroke-miterlimit:4;stroke-dashoffset:0;stroke-opacity:1;visibility:visible;display:inline;overflow:visible;enable-background:accumulate" />
      <path
         d="M 1124.1383,143.3488 C 1114.662,144.82174 1106.5615,149.20221 1105.5805,156.50144 C 1105.5659,160.24222 1105.3665,166.56642 1105.3327,170.30721 C 1105.3328,179.49325 1103.5434,182.28872 1099.2969,182.28872 L 996.21537,182.28872 C 984.23746,182.28872 974.59459,191.08639 974.59459,202.01768 L 974.59459,488.31282 C 975.73768,494.81513 980.67147,500.2961 988.22015,504.77614 C 1002.0131,383.84334 995.09296,243.00987 1099.0229,208.67935 C 1115.2631,206.00568 1111.9363,199.62281 1111.7804,184.98914 C 1111.7342,160.69529 1116.1187,147.47818 1124.1383,143.3488 z"
         id="path7304"
         style="fill:url(#linearGradient7952);fill-opacity:1;fill-rule:evenodd;stroke:none;stroke-width:1px;stroke-linecap:butt;stroke-linejoin:miter;stroke-opacity:1" />
      <path
         d="M 1001.9122,229.94755 L 1134.657,229.94755 C 1141.2926,229.94755 1146.6347,235.28961 1146.6347,241.92525 L 1146.6347,342.41132 C 1146.6347,349.04696 1141.2926,354.38902 1134.657,354.38902 L 1001.9122,354.38902 C 995.2766,354.38902 989.93454,349.04696 989.93454,342.41132 L 989.93454,241.92525 C 989.93454,235.28961 995.2766,229.94755 1001.9122,229.94755 z"
         id="path7306"
         style="fill:#ffa100;fill-opacity:1;fill-rule:evenodd;stroke:none;stroke-width:1px;stroke-linecap:butt;stroke-linejoin:miter;marker:none;marker-start:none;marker-mid:none;marker-end:none;stroke-miterlimit:4;stroke-dashoffset:0;stroke-opacity:1;visibility:visible;display:inline;overflow:visible;enable-background:accumulate" />
      <path
         d="M 1001.9133,229.94452 C 995.27768,229.94452 989.9318,235.29039 989.9318,241.92603 L 989.9318,342.41761 C 989.9318,348.94759 995.10968,354.21019 1001.5981,354.3766 C 1063.5975,328.43022 1041.6016,250.91447 1140.8268,231.65616 C 1139.0264,230.57588 1136.9169,229.94452 1134.656,229.94452 L 1001.9133,229.94452 z"
         id="path7308"
         style="fill:url(#linearGradient7954);fill-opacity:1;fill-rule:evenodd;stroke:none;stroke-width:1px;stroke-linecap:butt;stroke-linejoin:miter;stroke-opacity:1" />
      <path
         d="M 1156.8172,178.30239 L 1156.7272,178.48256 L 1156.7272,477.43486 C 1147.9284,512.39015 1008.1944,518.76094 981.824,487.47952 C 975.66864,477.91256 974.92366,459.13338 974.59459,435.13922 L 974.59459,488.31282 C 982.15192,531.30147 1154.6723,529.74003 1161.9747,488.31282 L 1161.9747,202.01768 C 1161.9747,198.88137 1161.1844,195.90837 1159.7675,193.27928 C 1158.0155,190.78119 1156.8172,188.09065 1156.8172,185.12645 L 1156.8172,180.84734 L 1156.8172,178.30239 z"
         id="path7310"
         style="fill:url(#linearGradient7956);fill-opacity:1;fill-rule:evenodd;stroke:none;stroke-width:1px;stroke-linecap:butt;stroke-linejoin:miter;stroke-opacity:1" />
      <path
         d="M 1131.4804,142.78576 C 1124.9732,142.7872 1118.4413,144.07106 1113.5531,146.63696 C 1127.7676,144.95042 1137.4083,149.00373 1142.4484,155.35284 C 1146.2699,161.62442 1146.3083,174.83179 1145.6014,189.40556 C 1145.3804,201.01999 1151.0011,204.60206 1156.7496,208.00844 L 1157.673,189.47313 C 1157.134,188.08897 1156.8172,186.6424 1156.8172,185.12645 L 1156.8172,180.84734 L 1156.8172,156.50144 C 1155.9516,147.35039 1143.766,142.78304 1131.4804,142.78576 z"
         id="path7312"
         style="fill:url(#linearGradient7958);fill-opacity:1;fill-rule:evenodd;stroke:none;stroke-width:1px;stroke-linecap:butt;stroke-linejoin:miter;stroke-opacity:1" />
      <path
         d="M 1108.0806,182.02759 C 1107.0823,194.60932 1025.1499,205.55659 983.05596,205.38384 C 982.80472,196.42589 985.9326,190.50909 995.87895,190.72894 C 1043.5428,190.52004 1103.5759,191.94672 1108.0806,182.02759 z"
         id="path7314"
         style="fill:url(#linearGradient7960);fill-opacity:1;fill-rule:evenodd;stroke:none;stroke-width:1px;stroke-linecap:butt;stroke-linejoin:miter;stroke-opacity:1" />
      <g
         transform="matrix(0.7206926,0,0,0.7206926,167.41891,234.55066)"
         id="g7320">
        <path
           d="M 1297.5257,217.50034 A 35.4431,35.4431 0 1 1 1226.6395,217.50034 A 35.4431,35.4431 0 1 1 1297.5257,217.50034 z"
           transform="translate(-12.082642,-12.504734)"
           id="path7322"
           style="opacity:1;fill:url(#linearGradient7962);fill-opacity:1;fill-rule:evenodd;stroke:none;stroke-width:1px;stroke-linecap:butt;stroke-linejoin:miter;marker:none;marker-start:none;marker-mid:none;marker-end:none;stroke-miterlimit:4;stroke-dasharray:none;stroke-dashoffset:0;stroke-opacity:1;visibility:visible;display:inline;overflow:visible;enable-background:accumulate" />
        <path
           d="M 1297.5257,217.50034 A 35.4431,35.4431 0 1 1 1226.6395,217.50034 A 35.4431,35.4431 0 1 1 1297.5257,217.50034 z"
           transform="matrix(0.5830436,0,0,0.5830436,514.15074,78.183414)"
           id="path7324"
           style="opacity:1;fill:url(#linearGradient7964);fill-opacity:1;fill-rule:evenodd;stroke:none;stroke-width:1px;stroke-linecap:butt;stroke-linejoin:miter;marker:none;marker-start:none;marker-mid:none;marker-end:none;stroke-miterlimit:4;stroke-dasharray:none;stroke-dashoffset:0;stroke-opacity:1;visibility:visible;display:inline;overflow:visible;enable-background:accumulate" />
        <path
           d="M 1259.111,204.48477 A 8.1318369,8.1318369 0 1 1 1242.8473,204.48477 A 8.1318369,8.1318369 0 1 1 1259.111,204.48477 z"
           transform="matrix(1.4186047,0,0,1.4186047,-524.64492,-85.087466)"
           id="path7326"
           style="opacity:1;fill:#ffffff;fill-opacity:1;fill-rule:evenodd;stroke:none;stroke-width:1px;stroke-linecap:butt;stroke-linejoin:miter;marker:none;marker-start:none;marker-mid:none;marker-end:none;stroke-miterlimit:4;stroke-dasharray:none;stroke-dashoffset:0;stroke-opacity:1;visibility:visible;display:inline;overflow:visible;enable-background:accumulate" />
        <path
           d="M 1249.9999,193.46434 C 1243.6321,193.46434 1238.4687,198.62778 1238.4686,204.99559 C 1238.4686,211.36339 1243.6321,216.52683 1249.9999,216.52684 C 1256.3677,216.52684 1261.5311,211.36337 1261.5312,204.99559 C 1261.5312,198.62779 1256.3677,193.46434 1249.9999,193.46434 z M 1249.9999,197.62059 C 1254.0712,197.62059 1257.3749,200.92438 1257.3749,204.99559 C 1257.3748,209.06679 1254.0711,212.37059 1249.9999,212.37059 C 1245.9287,212.3706 1242.6249,209.0668 1242.6249,204.99559 C 1242.6249,200.92437 1245.9287,197.62059 1249.9999,197.62059 z"
           id="path7328"
           style="opacity:1;fill:url(#linearGradient7966);fill-opacity:1;fill-rule:evenodd;stroke:none;stroke-width:1px;stroke-linecap:butt;stroke-linejoin:miter;marker:none;marker-start:none;marker-mid:none;marker-end:none;stroke-miterlimit:4;stroke-dasharray:none;stroke-dashoffset:0;stroke-opacity:1;visibility:visible;display:inline;overflow:visible;enable-background:accumulate" />
      </g>
      <g
         transform="matrix(0.7206926,0,0,0.7206926,167.41891,228.74864)"
         id="g7330">
        <g
           id="g7332">
          <path
             d="M 1156.9063,245.25 C 1152.3084,245.32294 1148.75,248.12069 1148.75,251.8125 L 1148.75,272.5625 C 1148.75,276.50042 1152.8045,279.93242 1157.8437,280.25 L 1201.8125,283.03125 C 1206.8517,283.34883 1210.9063,280.43793 1210.9063,276.5 L 1210.9063,255.75 C 1210.9063,251.81207 1206.8517,248.38009 1201.8125,248.0625 L 1157.8437,245.28125 C 1157.5288,245.2614 1157.2128,245.24514 1156.9063,245.25 z"
             id="path7334"
             style="fill:url(#linearGradient7968);fill-opacity:1;fill-rule:evenodd;stroke:none;stroke-width:1px;stroke-linecap:butt;stroke-linejoin:miter;marker:none;marker-start:none;marker-mid:none;marker-end:none;stroke-miterlimit:4;stroke-dashoffset:0;stroke-opacity:1;visibility:visible;display:inline;overflow:visible;enable-background:accumulate" />
          <path
             d="M 1343.0937,245.25 C 1342.7872,245.24514 1342.4712,245.2614 1342.1563,245.28125 L 1298.1875,248.0625 C 1293.1483,248.38009 1289.0937,251.81207 1289.0937,255.75 L 1289.0937,276.5 C 1289.0937,280.43793 1293.1483,283.34883 1298.1875,283.03125 L 1342.1563,280.25 C 1347.1955,279.93242 1351.25,276.50042 1351.25,272.5625 L 1351.25,251.8125 C 1351.25,248.12069 1347.6916,245.32294 1343.0937,245.25 z"
             id="path7336"
             style="fill:url(#linearGradient7970);fill-opacity:1;fill-rule:evenodd;stroke:none;stroke-width:1px;stroke-linecap:butt;stroke-linejoin:miter;marker:none;marker-start:none;marker-mid:none;marker-end:none;stroke-miterlimit:4;stroke-dashoffset:0;stroke-opacity:1;visibility:visible;display:inline;overflow:visible;enable-background:accumulate" />
          <path
             d="M 1228.0313,249.40625 C 1222.992,249.40625 1218.9062,252.59331 1218.9063,256.53125 L 1218.9063,277.28125 C 1218.9063,281.21916 1222.992,284.37501 1228.0313,284.375 L 1271.9687,284.375 C 1277.0079,284.375 1281.0938,281.21915 1281.0937,277.28125 L 1281.0937,256.53125 C 1281.0937,252.59332 1277.008,249.40625 1271.9687,249.40625 L 1228.0313,249.40625 z"
             id="path7338"
             style="fill:url(#linearGradient7972);fill-opacity:1;fill-rule:evenodd;stroke:none;stroke-width:1px;stroke-linecap:butt;stroke-linejoin:miter;marker:none;marker-start:none;marker-mid:none;marker-end:none;stroke-miterlimit:4;stroke-dashoffset:0;stroke-opacity:1;visibility:visible;display:inline;overflow:visible;enable-background:accumulate" />
        </g>
        <path
           d="M 1347.75,246.40625 C 1348.1277,247.16609 1348.3438,248.01711 1348.3438,248.90625 L 1348.3438,269.65625 C 1348.3438,273.59417 1344.2892,277.02617 1339.25,277.34375 L 1295.2813,280.125 C 1293.1706,280.25802 1291.2271,279.80673 1289.6876,278.96875 C 1290.9811,281.57609 1294.2821,283.27737 1298.1876,283.03125 L 1342.1563,280.25 C 1347.1955,279.93241 1351.25,276.50042 1351.25,272.5625 L 1351.25,251.8125 C 1351.25,249.52717 1349.8796,247.57211 1347.75,246.40625 z M 1207.125,249.71875 C 1207.689,250.68159 1208,251.74567 1208,252.84375 L 1208,273.59375 C 1208,277.53168 1203.9454,280.44258 1198.9063,280.125 L 1154.9376,277.34375 C 1152.9651,277.21945 1151.1429,276.60967 1149.6563,275.6875 C 1151.1181,278.1709 1154.2162,280.02138 1157.8438,280.25 L 1201.8126,283.03125 C 1206.8517,283.34882 1210.9063,280.43793 1210.9063,276.5 L 1210.9063,255.75 C 1210.9063,253.36308 1209.4207,251.15301 1207.125,249.71875 z M 1277.4688,250.84375 C 1277.9306,251.69631 1278.1875,252.64052 1278.1876,253.625 L 1278.1876,274.375 C 1278.1876,278.3129 1274.1017,281.46875 1269.0626,281.46875 L 1225.125,281.46875 C 1223.0472,281.46875 1221.1278,280.90667 1219.5938,280 C 1220.9601,282.58173 1224.2216,284.37501 1228.0313,284.375 L 1271.9688,284.375 C 1277.008,284.37499 1281.0939,281.21915 1281.0938,277.28125 L 1281.0938,256.53125 C 1281.0938,254.20756 1279.6705,252.144 1277.4688,250.84375 z"
           id="path7340"
           style="opacity:0.7;fill:#000000;fill-opacity:1;fill-rule:evenodd;stroke:none;stroke-width:1px;stroke-linecap:butt;stroke-linejoin:miter;marker:none;marker-start:none;marker-mid:none;marker-end:none;stroke-miterlimit:4;stroke-dashoffset:0;stroke-opacity:1;visibility:visible;display:inline;overflow:visible;enable-background:accumulate" />
      </g>
      <g
         transform="matrix(0.7206926,0,0,0.7206926,167.41891,256.74256)"
         id="g7342">
        <g
           id="g7344">
          <path
             d="M 1156.9063,245.25 C 1152.3084,245.32294 1148.75,248.12069 1148.75,251.8125 L 1148.75,272.5625 C 1148.75,276.50042 1152.8045,279.93242 1157.8437,280.25 L 1201.8125,283.03125 C 1206.8517,283.34883 1210.9063,280.43793 1210.9063,276.5 L 1210.9063,255.75 C 1210.9063,251.81207 1206.8517,248.38009 1201.8125,248.0625 L 1157.8437,245.28125 C 1157.5288,245.2614 1157.2128,245.24514 1156.9063,245.25 z"
             id="path7346"
             style="fill:url(#linearGradient7974);fill-opacity:1;fill-rule:evenodd;stroke:none;stroke-width:1px;stroke-linecap:butt;stroke-linejoin:miter;marker:none;marker-start:none;marker-mid:none;marker-end:none;stroke-miterlimit:4;stroke-dashoffset:0;stroke-opacity:1;visibility:visible;display:inline;overflow:visible;enable-background:accumulate" />
          <path
             d="M 1343.0937,245.25 C 1342.7872,245.24514 1342.4712,245.2614 1342.1563,245.28125 L 1298.1875,248.0625 C 1293.1483,248.38009 1289.0937,251.81207 1289.0937,255.75 L 1289.0937,276.5 C 1289.0937,280.43793 1293.1483,283.34883 1298.1875,283.03125 L 1342.1563,280.25 C 1347.1955,279.93242 1351.25,276.50042 1351.25,272.5625 L 1351.25,251.8125 C 1351.25,248.12069 1347.6916,245.32294 1343.0937,245.25 z"
             id="path7348"
             style="fill:url(#linearGradient7976);fill-opacity:1;fill-rule:evenodd;stroke:none;stroke-width:1px;stroke-linecap:butt;stroke-linejoin:miter;marker:none;marker-start:none;marker-mid:none;marker-end:none;stroke-miterlimit:4;stroke-dashoffset:0;stroke-opacity:1;visibility:visible;display:inline;overflow:visible;enable-background:accumulate" />
          <path
             d="M 1228.0313,249.40625 C 1222.992,249.40625 1218.9062,252.59331 1218.9063,256.53125 L 1218.9063,277.28125 C 1218.9063,281.21916 1222.992,284.37501 1228.0313,284.375 L 1271.9687,284.375 C 1277.0079,284.375 1281.0938,281.21915 1281.0937,277.28125 L 1281.0937,256.53125 C 1281.0937,252.59332 1277.008,249.40625 1271.9687,249.40625 L 1228.0313,249.40625 z"
             id="path7350"
             style="fill:url(#linearGradient7978);fill-opacity:1;fill-rule:evenodd;stroke:none;stroke-width:1px;stroke-linecap:butt;stroke-linejoin:miter;marker:none;marker-start:none;marker-mid:none;marker-end:none;stroke-miterlimit:4;stroke-dashoffset:0;stroke-opacity:1;visibility:visible;display:inline;overflow:visible;enable-background:accumulate" />
        </g>
        <path
           d="M 1347.75,246.40625 C 1348.1277,247.16609 1348.3438,248.01711 1348.3438,248.90625 L 1348.3438,269.65625 C 1348.3438,273.59417 1344.2892,277.02617 1339.25,277.34375 L 1295.2813,280.125 C 1293.1706,280.25802 1291.2271,279.80673 1289.6876,278.96875 C 1290.9811,281.57609 1294.2821,283.27737 1298.1876,283.03125 L 1342.1563,280.25 C 1347.1955,279.93241 1351.25,276.50042 1351.25,272.5625 L 1351.25,251.8125 C 1351.25,249.52717 1349.8796,247.57211 1347.75,246.40625 z M 1207.125,249.71875 C 1207.689,250.68159 1208,251.74567 1208,252.84375 L 1208,273.59375 C 1208,277.53168 1203.9454,280.44258 1198.9063,280.125 L 1154.9376,277.34375 C 1152.9651,277.21945 1151.1429,276.60967 1149.6563,275.6875 C 1151.1181,278.1709 1154.2162,280.02138 1157.8438,280.25 L 1201.8126,283.03125 C 1206.8517,283.34882 1210.9063,280.43793 1210.9063,276.5 L 1210.9063,255.75 C 1210.9063,253.36308 1209.4207,251.15301 1207.125,249.71875 z M 1277.4688,250.84375 C 1277.9306,251.69631 1278.1875,252.64052 1278.1876,253.625 L 1278.1876,274.375 C 1278.1876,278.3129 1274.1017,281.46875 1269.0626,281.46875 L 1225.125,281.46875 C 1223.0472,281.46875 1221.1278,280.90667 1219.5938,280 C 1220.9601,282.58173 1224.2216,284.37501 1228.0313,284.375 L 1271.9688,284.375 C 1277.008,284.37499 1281.0939,281.21915 1281.0938,277.28125 L 1281.0938,256.53125 C 1281.0938,254.20756 1279.6705,252.144 1277.4688,250.84375 z"
           id="path7352"
           style="opacity:0.7;fill:#000000;fill-opacity:1;fill-rule:evenodd;stroke:none;stroke-width:1px;stroke-linecap:butt;stroke-linejoin:miter;marker:none;marker-start:none;marker-mid:none;marker-end:none;stroke-miterlimit:4;stroke-dashoffset:0;stroke-opacity:1;visibility:visible;display:inline;overflow:visible;enable-background:accumulate" />
      </g>
      <g
         transform="matrix(0.7206926,0,0,0.7206926,167.41891,284.73646)"
         id="g7354">
        <g
           id="g7356">
          <path
             d="M 1156.9063,245.25 C 1152.3084,245.32294 1148.75,248.12069 1148.75,251.8125 L 1148.75,272.5625 C 1148.75,276.50042 1152.8045,279.93242 1157.8437,280.25 L 1201.8125,283.03125 C 1206.8517,283.34883 1210.9063,280.43793 1210.9063,276.5 L 1210.9063,255.75 C 1210.9063,251.81207 1206.8517,248.38009 1201.8125,248.0625 L 1157.8437,245.28125 C 1157.5288,245.2614 1157.2128,245.24514 1156.9063,245.25 z"
             id="path7358"
             style="fill:url(#linearGradient7980);fill-opacity:1;fill-rule:evenodd;stroke:none;stroke-width:1px;stroke-linecap:butt;stroke-linejoin:miter;marker:none;marker-start:none;marker-mid:none;marker-end:none;stroke-miterlimit:4;stroke-dashoffset:0;stroke-opacity:1;visibility:visible;display:inline;overflow:visible;enable-background:accumulate" />
          <path
             d="M 1343.0937,245.25 C 1342.7872,245.24514 1342.4712,245.2614 1342.1563,245.28125 L 1298.1875,248.0625 C 1293.1483,248.38009 1289.0937,251.81207 1289.0937,255.75 L 1289.0937,276.5 C 1289.0937,280.43793 1293.1483,283.34883 1298.1875,283.03125 L 1342.1563,280.25 C 1347.1955,279.93242 1351.25,276.50042 1351.25,272.5625 L 1351.25,251.8125 C 1351.25,248.12069 1347.6916,245.32294 1343.0937,245.25 z"
             id="path7360"
             style="fill:url(#linearGradient7982);fill-opacity:1;fill-rule:evenodd;stroke:none;stroke-width:1px;stroke-linecap:butt;stroke-linejoin:miter;marker:none;marker-start:none;marker-mid:none;marker-end:none;stroke-miterlimit:4;stroke-dashoffset:0;stroke-opacity:1;visibility:visible;display:inline;overflow:visible;enable-background:accumulate" />
          <path
             d="M 1228.0313,249.40625 C 1222.992,249.40625 1218.9062,252.59331 1218.9063,256.53125 L 1218.9063,277.28125 C 1218.9063,281.21916 1222.992,284.37501 1228.0313,284.375 L 1271.9687,284.375 C 1277.0079,284.375 1281.0938,281.21915 1281.0937,277.28125 L 1281.0937,256.53125 C 1281.0937,252.59332 1277.008,249.40625 1271.9687,249.40625 L 1228.0313,249.40625 z"
             id="path7362"
             style="fill:url(#linearGradient7984);fill-opacity:1;fill-rule:evenodd;stroke:none;stroke-width:1px;stroke-linecap:butt;stroke-linejoin:miter;marker:none;marker-start:none;marker-mid:none;marker-end:none;stroke-miterlimit:4;stroke-dashoffset:0;stroke-opacity:1;visibility:visible;display:inline;overflow:visible;enable-background:accumulate" />
        </g>
        <path
           d="M 1347.75,246.40625 C 1348.1277,247.16609 1348.3438,248.01711 1348.3438,248.90625 L 1348.3438,269.65625 C 1348.3438,273.59417 1344.2892,277.02617 1339.25,277.34375 L 1295.2813,280.125 C 1293.1706,280.25802 1291.2271,279.80673 1289.6876,278.96875 C 1290.9811,281.57609 1294.2821,283.27737 1298.1876,283.03125 L 1342.1563,280.25 C 1347.1955,279.93241 1351.25,276.50042 1351.25,272.5625 L 1351.25,251.8125 C 1351.25,249.52717 1349.8796,247.57211 1347.75,246.40625 z M 1207.125,249.71875 C 1207.689,250.68159 1208,251.74567 1208,252.84375 L 1208,273.59375 C 1208,277.53168 1203.9454,280.44258 1198.9063,280.125 L 1154.9376,277.34375 C 1152.9651,277.21945 1151.1429,276.60967 1149.6563,275.6875 C 1151.1181,278.1709 1154.2162,280.02138 1157.8438,280.25 L 1201.8126,283.03125 C 1206.8517,283.34882 1210.9063,280.43793 1210.9063,276.5 L 1210.9063,255.75 C 1210.9063,253.36308 1209.4207,251.15301 1207.125,249.71875 z M 1277.4688,250.84375 C 1277.9306,251.69631 1278.1875,252.64052 1278.1876,253.625 L 1278.1876,274.375 C 1278.1876,278.3129 1274.1017,281.46875 1269.0626,281.46875 L 1225.125,281.46875 C 1223.0472,281.46875 1221.1278,280.90667 1219.5938,280 C 1220.9601,282.58173 1224.2216,284.37501 1228.0313,284.375 L 1271.9688,284.375 C 1277.008,284.37499 1281.0939,281.21915 1281.0938,277.28125 L 1281.0938,256.53125 C 1281.0938,254.20756 1279.6705,252.144 1277.4688,250.84375 z"
           id="path7364"
           style="opacity:0.7;fill:#000000;fill-opacity:1;fill-rule:evenodd;stroke:none;stroke-width:1px;stroke-linecap:butt;stroke-linejoin:miter;marker:none;marker-start:none;marker-mid:none;marker-end:none;stroke-miterlimit:4;stroke-dashoffset:0;stroke-opacity:1;visibility:visible;display:inline;overflow:visible;enable-background:accumulate" />
      </g>
      <g
         transform="matrix(0.7206926,0,0,0.7206926,167.41891,245.70967)"
         id="g7366">
        <path
           d="M 1156.9063,182.87258 C 1152.3084,182.94552 1148.75,185.74327 1148.75,189.43508 L 1148.75,210.18508 C 1148.75,214.123 1152.8045,217.555 1157.8437,217.87258 L 1201.8125,220.65383 C 1206.8517,220.97141 1210.9063,218.06051 1210.9063,214.12258 L 1210.9063,193.37258 C 1210.9063,189.43465 1206.8517,186.00267 1201.8125,185.68508 L 1157.8437,182.90383 C 1157.5288,182.88398 1157.2128,182.86772 1156.9063,182.87258 z"
           id="path7368"
           style="fill:url(#linearGradient7986);fill-opacity:1;fill-rule:evenodd;stroke:none;stroke-width:1px;stroke-linecap:butt;stroke-linejoin:miter;marker:none;marker-start:none;marker-mid:none;marker-end:none;stroke-miterlimit:4;stroke-dashoffset:0;stroke-opacity:1;visibility:visible;display:inline;overflow:visible;enable-background:accumulate" />
        <path
           d="M 1343.0937,182.87258 C 1342.7872,182.86772 1342.4712,182.88398 1342.1563,182.90383 L 1298.1875,185.68508 C 1293.1483,186.00267 1289.0937,189.43465 1289.0937,193.37258 L 1289.0937,214.12258 C 1289.0937,218.06051 1293.1483,220.97141 1298.1875,220.65383 L 1342.1563,217.87258 C 1347.1955,217.555 1351.25,214.123 1351.25,210.18508 L 1351.25,189.43508 C 1351.25,185.74327 1347.6916,182.94552 1343.0937,182.87258 z"
           id="path7370"
           style="fill:url(#linearGradient7988);fill-opacity:1;fill-rule:evenodd;stroke:none;stroke-width:1px;stroke-linecap:butt;stroke-linejoin:miter;marker:none;marker-start:none;marker-mid:none;marker-end:none;stroke-miterlimit:4;stroke-dashoffset:0;stroke-opacity:1;visibility:visible;display:inline;overflow:visible;enable-background:accumulate" />
        <path
           d="M 1347.75,184.02883 C 1348.1277,184.78867 1348.3438,185.63969 1348.3438,186.52883 L 1348.3438,207.27883 C 1348.3438,211.21675 1344.2892,214.64875 1339.25,214.96633 L 1295.2813,217.74758 C 1293.1706,217.8806 1291.2271,217.42931 1289.6876,216.59133 C 1290.9811,219.19867 1294.2821,220.89995 1298.1876,220.65383 L 1342.1563,217.87258 C 1347.1955,217.55499 1351.25,214.123 1351.25,210.18508 L 1351.25,189.43508 C 1351.25,187.14975 1349.8796,185.19469 1347.75,184.02883 z M 1207.125,187.34133 C 1207.689,188.30417 1208,189.36825 1208,190.46633 L 1208,211.21633 C 1208,215.15426 1203.9454,218.06516 1198.9063,217.74758 L 1154.9376,214.96633 C 1152.9651,214.84203 1151.1429,214.23225 1149.6563,213.31008 C 1151.1181,215.79348 1154.2162,217.64396 1157.8438,217.87258 L 1201.8126,220.65383 C 1206.8517,220.9714 1210.9063,218.06051 1210.9063,214.12258 L 1210.9063,193.37258 C 1210.9063,190.98566 1209.4207,188.77559 1207.125,187.34133 z"
           id="path7372"
           style="opacity:0.7;fill:#000000;fill-opacity:1;fill-rule:evenodd;stroke:none;stroke-width:1px;stroke-linecap:butt;stroke-linejoin:miter;marker:none;marker-start:none;marker-mid:none;marker-end:none;stroke-miterlimit:4;stroke-dashoffset:0;stroke-opacity:1;visibility:visible;display:inline;overflow:visible;enable-background:accumulate" />
      </g>
      <path
         d="M 1001.9197,229.94452 C 995.28409,229.94452 989.93821,235.29039 989.93821,241.92603 L 989.93821,342.41761 C 989.93821,347.07787 992.57955,351.08858 996.447,353.07035 C 996.34791,352.5051 996.28931,351.90813 996.28931,351.31366 L 996.28931,246.83575 C 996.28931,241.32552 1000.7337,236.88119 1006.2439,236.88119 L 1141.2386,236.88119 C 1142.9606,236.88119 1144.5811,237.31102 1145.9907,238.07483 C 1144.3933,233.34093 1139.9486,229.94452 1134.6623,229.94452 L 1001.9197,229.94452 z"
         id="path7374"
         style="opacity:0.6;fill:url(#linearGradient7990);fill-opacity:1;fill-rule:evenodd;stroke:none;stroke-width:1px;stroke-linecap:butt;stroke-linejoin:miter;marker:none;marker-start:none;marker-mid:none;marker-end:none;stroke-miterlimit:4;stroke-dashoffset:0;stroke-opacity:1;visibility:visible;display:inline;overflow:visible;enable-background:accumulate" />
      <path
         d="M 1134.6531,354.38902 C 1141.2888,354.38902 1146.6347,349.04314 1146.6347,342.4075 L 1146.6347,241.91593 C 1146.6347,237.25567 1143.9933,233.24496 1140.1259,231.26319 C 1140.225,231.82844 1140.2836,232.42541 1140.2836,233.01988 L 1140.2836,337.49779 C 1140.2836,343.00801 1135.8392,347.45235 1130.329,347.45235 L 995.33425,347.45235 C 993.6123,347.45235 991.99175,347.02252 990.58215,346.25871 C 992.17956,350.9926 996.62422,354.38902 1001.9106,354.38902 L 1134.6531,354.38902 z"
         id="path7376"
         style="opacity:0.6;fill:url(#linearGradient7992);fill-opacity:1;fill-rule:evenodd;stroke:none;stroke-width:1px;stroke-linecap:butt;stroke-linejoin:miter;marker:none;marker-start:none;marker-mid:none;marker-end:none;stroke-miterlimit:4;stroke-dashoffset:0;stroke-opacity:1;visibility:visible;display:inline;overflow:visible;enable-background:accumulate" />
      <g
         transform="matrix(0.7206926,0,0,0.7206926,-150.60286,245.70967)"
         id="g7378">
        <text
           x="1691.542"
           y="243.36618"
           id="text7380"
           xml:space="preserve"
           style="font-size:17.85503769px;font-style:normal;font-variant:normal;font-weight:bold;font-stretch:normal;text-align:center;line-height:89.99999762%;writing-mode:lr-tb;text-anchor:middle;fill:#ffffff;fill-opacity:1;stroke:none;stroke-width:1px;stroke-linecap:butt;stroke-linejoin:miter;stroke-opacity:1;font-family:Arial;-inkscape-font-specification:Arial Bold"><tspan
             x="1691.542"
             y="243.36618"
             id="tspan7382">3</tspan><tspan
             x="1691.542"
             y="254.16451"
             id="tspan7384"
             style="font-size:10.41543865px;font-style:normal;font-variant:normal;font-weight:bold;font-stretch:normal;text-align:center;line-height:89.99999762%;writing-mode:lr-tb;text-anchor:middle;fill:#ffffff;font-family:Arial;-inkscape-font-specification:Arial Bold">ABC</tspan></text>
        <text
           x="1633.4796"
           y="63.9683"
           transform="matrix(0.9941276,0.108214,-0.108214,0.9941276,0,0)"
           id="text7386"
           xml:space="preserve"
           style="font-size:17.85503769px;font-style:normal;font-variant:normal;font-weight:bold;font-stretch:normal;text-align:center;line-height:89.99999762%;writing-mode:lr-tb;text-anchor:middle;fill:#ffffff;fill-opacity:1;stroke:none;stroke-width:1px;stroke-linecap:butt;stroke-linejoin:miter;stroke-opacity:1;font-family:Arial;-inkscape-font-specification:Arial Bold"><tspan
             x="1633.4796"
             y="63.9683"
             id="tspan7388">3</tspan><tspan
             x="1633.4796"
             y="74.766617"
             id="tspan7390"
             style="font-size:10.41543865px;font-style:normal;font-variant:normal;font-weight:bold;font-stretch:normal;text-align:center;line-height:89.99999762%;writing-mode:lr-tb;text-anchor:middle;fill:#ffffff;font-family:Arial;-inkscape-font-specification:Arial Bold">ABC</tspan></text>
        <text
           x="1724.8654"
           y="427.93289"
           transform="matrix(0.9941902,-0.1076372,0.1076372,0.9941902,0,0)"
           id="text7392"
           xml:space="preserve"
           style="font-size:17.85503769px;font-style:normal;font-variant:normal;font-weight:bold;font-stretch:normal;text-align:center;line-height:89.99999762%;writing-mode:lr-tb;text-anchor:middle;fill:#ffffff;fill-opacity:1;stroke:none;stroke-width:1px;stroke-linecap:butt;stroke-linejoin:miter;stroke-opacity:1;font-family:Arial;-inkscape-font-specification:Arial Bold"><tspan
             x="1724.8654"
             y="427.93289"
             id="tspan7394">3</tspan><tspan
             x="1724.8654"
             y="438.7312"
             id="tspan7396"
             style="font-size:10.41543865px;font-style:normal;font-variant:normal;font-weight:bold;font-stretch:normal;text-align:center;line-height:89.99999762%;writing-mode:lr-tb;text-anchor:middle;fill:#ffffff;font-family:Arial;-inkscape-font-specification:Arial Bold">ABC</tspan></text>
      </g>
      <g
         transform="matrix(0.7206926,0,0,0.7206926,-150.60286,273.62796)"
         id="g7398">
        <text
           x="1691.542"
           y="243.36618"
           id="text7400"
           xml:space="preserve"
           style="font-size:17.85503769px;font-style:normal;font-variant:normal;font-weight:bold;font-stretch:normal;text-align:center;line-height:89.99999762%;writing-mode:lr-tb;text-anchor:middle;fill:#ffffff;fill-opacity:1;stroke:none;stroke-width:1px;stroke-linecap:butt;stroke-linejoin:miter;stroke-opacity:1;font-family:Arial;-inkscape-font-specification:Arial Bold"><tspan
             x="1691.542"
             y="243.36618"
             id="tspan7402">3</tspan><tspan
             x="1691.542"
             y="254.16451"
             id="tspan7404"
             style="font-size:10.41543865px;font-style:normal;font-variant:normal;font-weight:bold;font-stretch:normal;text-align:center;line-height:89.99999762%;writing-mode:lr-tb;text-anchor:middle;fill:#ffffff;font-family:Arial;-inkscape-font-specification:Arial Bold">ABC</tspan></text>
        <text
           x="1633.4796"
           y="63.9683"
           transform="matrix(0.9941276,0.108214,-0.108214,0.9941276,0,0)"
           id="text7406"
           xml:space="preserve"
           style="font-size:17.85503769px;font-style:normal;font-variant:normal;font-weight:bold;font-stretch:normal;text-align:center;line-height:89.99999762%;writing-mode:lr-tb;text-anchor:middle;fill:#ffffff;fill-opacity:1;stroke:none;stroke-width:1px;stroke-linecap:butt;stroke-linejoin:miter;stroke-opacity:1;font-family:Arial;-inkscape-font-specification:Arial Bold"><tspan
             x="1633.4796"
             y="63.9683"
             id="tspan7408">3</tspan><tspan
             x="1633.4796"
             y="74.766617"
             id="tspan7410"
             style="font-size:10.41543865px;font-style:normal;font-variant:normal;font-weight:bold;font-stretch:normal;text-align:center;line-height:89.99999762%;writing-mode:lr-tb;text-anchor:middle;fill:#ffffff;font-family:Arial;-inkscape-font-specification:Arial Bold">ABC</tspan></text>
        <text
           x="1724.8654"
           y="427.93289"
           transform="matrix(0.9941902,-0.1076372,0.1076372,0.9941902,0,0)"
           id="text7412"
           xml:space="preserve"
           style="font-size:17.85503769px;font-style:normal;font-variant:normal;font-weight:bold;font-stretch:normal;text-align:center;line-height:89.99999762%;writing-mode:lr-tb;text-anchor:middle;fill:#ffffff;fill-opacity:1;stroke:none;stroke-width:1px;stroke-linecap:butt;stroke-linejoin:miter;stroke-opacity:1;font-family:Arial;-inkscape-font-specification:Arial Bold"><tspan
             x="1724.8654"
             y="427.93289"
             id="tspan7414">3</tspan><tspan
             x="1724.8654"
             y="438.7312"
             id="tspan7416"
             style="font-size:10.41543865px;font-style:normal;font-variant:normal;font-weight:bold;font-stretch:normal;text-align:center;line-height:89.99999762%;writing-mode:lr-tb;text-anchor:middle;fill:#ffffff;font-family:Arial;-inkscape-font-specification:Arial Bold">ABC</tspan></text>
      </g>
      <g
         transform="matrix(0.7206926,0,0,0.7206926,-150.60286,301.78901)"
         id="g7418">
        <text
           x="1691.542"
           y="243.36618"
           id="text7420"
           xml:space="preserve"
           style="font-size:17.85503769px;font-style:normal;font-variant:normal;font-weight:bold;font-stretch:normal;text-align:center;line-height:89.99999762%;writing-mode:lr-tb;text-anchor:middle;fill:#ffffff;fill-opacity:1;stroke:none;stroke-width:1px;stroke-linecap:butt;stroke-linejoin:miter;stroke-opacity:1;font-family:Arial;-inkscape-font-specification:Arial Bold"><tspan
             x="1691.542"
             y="243.36618"
             id="tspan7422">3</tspan><tspan
             x="1691.542"
             y="254.16451"
             id="tspan7424"
             style="font-size:10.41543865px;font-style:normal;font-variant:normal;font-weight:bold;font-stretch:normal;text-align:center;line-height:89.99999762%;writing-mode:lr-tb;text-anchor:middle;fill:#ffffff;font-family:Arial;-inkscape-font-specification:Arial Bold">ABC</tspan></text>
        <text
           x="1633.4796"
           y="63.9683"
           transform="matrix(0.9941276,0.108214,-0.108214,0.9941276,0,0)"
           id="text7426"
           xml:space="preserve"
           style="font-size:17.85503769px;font-style:normal;font-variant:normal;font-weight:bold;font-stretch:normal;text-align:center;line-height:89.99999762%;writing-mode:lr-tb;text-anchor:middle;fill:#ffffff;fill-opacity:1;stroke:none;stroke-width:1px;stroke-linecap:butt;stroke-linejoin:miter;stroke-opacity:1;font-family:Arial;-inkscape-font-specification:Arial Bold"><tspan
             x="1633.4796"
             y="63.9683"
             id="tspan7428">3</tspan><tspan
             x="1633.4796"
             y="74.766617"
             id="tspan7430"
             style="font-size:10.41543865px;font-style:normal;font-variant:normal;font-weight:bold;font-stretch:normal;text-align:center;line-height:89.99999762%;writing-mode:lr-tb;text-anchor:middle;fill:#ffffff;font-family:Arial;-inkscape-font-specification:Arial Bold">ABC</tspan></text>
        <text
           x="1724.8654"
           y="427.93289"
           transform="matrix(0.9941902,-0.1076372,0.1076372,0.9941902,0,0)"
           id="text7432"
           xml:space="preserve"
           style="font-size:17.85503769px;font-style:normal;font-variant:normal;font-weight:bold;font-stretch:normal;text-align:center;line-height:89.99999762%;writing-mode:lr-tb;text-anchor:middle;fill:#ffffff;fill-opacity:1;stroke:none;stroke-width:1px;stroke-linecap:butt;stroke-linejoin:miter;stroke-opacity:1;font-family:Arial;-inkscape-font-specification:Arial Bold"><tspan
             x="1724.8654"
             y="427.93289"
             id="tspan7434">3</tspan><tspan
             x="1724.8654"
             y="438.7312"
             id="tspan7436"
             style="font-size:10.41543865px;font-style:normal;font-variant:normal;font-weight:bold;font-stretch:normal;text-align:center;line-height:89.99999762%;writing-mode:lr-tb;text-anchor:middle;fill:#ffffff;font-family:Arial;-inkscape-font-specification:Arial Bold">ABC</tspan></text>
      </g>
      <path
         d="M 1006.6707,391.85345 L 1009.0241,398.00822 L 1013.972,395.05151 L 1012.8859,391.55173 L 1020.7302,385.94002 L 1024.049,387.87094 L 1027.5488,384.4315 L 1021.8767,381.35411 L 1006.6707,391.85345 z"
         id="path7438"
         style="fill:#ffffff;fill-rule:evenodd;stroke:none;stroke-width:1px;stroke-linecap:butt;stroke-linejoin:miter;stroke-opacity:1" />
      <path
         d="M 1129.0257,391.85345 L 1126.6723,398.00822 L 1121.7244,395.05151 L 1122.8105,391.55173 L 1114.9663,385.94002 L 1111.6474,387.87094 L 1108.1477,384.4315 L 1113.8197,381.35411 L 1129.0257,391.85345 z"
         id="path7440"
         style="fill:#ffffff;fill-rule:evenodd;stroke:none;stroke-width:1px;stroke-linecap:butt;stroke-linejoin:miter;stroke-opacity:1" />
      <path
         d="M 1053.1553,207.93997 C 1050.7191,207.93997 1048.737,209.92215 1048.7369,212.35829 C 1048.7369,214.79443 1050.7192,216.77661 1053.1553,216.77661 C 1055.5914,216.77661 1057.5736,214.79443 1057.5736,212.35829 C 1057.5736,209.92215 1055.5914,207.93997 1053.1553,207.93997 z M 1068.2846,207.93997 C 1065.8485,207.93997 1063.8664,209.92215 1063.8664,212.35829 C 1063.8664,214.79443 1065.8485,216.77661 1068.2846,216.77661 C 1070.7208,216.77661 1072.703,214.79443 1072.703,212.35829 C 1072.703,209.92215 1070.7208,207.93997 1068.2846,207.93997 z M 1083.4141,207.93997 C 1080.9779,207.93997 1079.0181,209.92215 1079.0181,212.35829 C 1079.0181,214.79443 1080.9779,216.77661 1083.4141,216.77661 C 1085.8502,216.77661 1087.8323,214.79443 1087.8323,212.35829 C 1087.8323,209.92215 1085.8501,207.93997 1083.4141,207.93997 z"
         id="path7442"
         style="opacity:0.7;fill:#000000;fill-opacity:1;fill-rule:evenodd;stroke:none;stroke-width:1px;stroke-linecap:butt;stroke-linejoin:miter;marker:none;marker-start:none;marker-mid:none;marker-end:none;stroke-miterlimit:4;stroke-dasharray:none;stroke-dashoffset:0;stroke-opacity:1;visibility:visible;display:inline;overflow:visible;enable-background:accumulate" />
      <rect
         width="8.4925051"
         height="219.83992"
         rx="0"
         ry="0"
         x="1161.9371"
         y="253.093"
         id="rect7444"
         style="fill:#000000;fill-opacity:1;fill-rule:evenodd;stroke:none;stroke-width:1px;stroke-linecap:butt;stroke-linejoin:miter;marker:none;marker-start:none;marker-mid:none;marker-end:none;stroke-miterlimit:4;stroke-dasharray:none;stroke-dashoffset:0;stroke-opacity:1;visibility:visible;display:inline;overflow:visible;enable-background:accumulate" />
      <path
         d="M 1564.5697,259.53561 A 66.222908,66.222908 0 1 1 1432.1239,259.53561 A 66.222908,66.222908 0 1 1 1564.5697,259.53561 z"
         transform="matrix(2.4000001,0,0,0.5917525,-2461.5617,353.17332)"
         id="path7446"
         style="opacity:0.15;fill:url(#radialGradient7994);fill-opacity:1;fill-rule:evenodd;stroke:none;stroke-width:1px;stroke-linecap:butt;stroke-linejoin:miter;marker:none;marker-start:none;marker-mid:none;marker-end:none;stroke-miterlimit:4;stroke-dasharray:none;stroke-dashoffset:0;stroke-opacity:1;visibility:visible;display:inline;overflow:visible;enable-background:accumulate" />
      <path
         d="M 1031.3757,255.94281 C 1021.9918,265.41479 1016.1988,278.44969 1016.1988,292.8261 C 1016.1988,307.20252 1021.9918,320.23741 1031.3757,329.70939 L 1037.2282,325.64765 C 1028.5793,317.37627 1023.1867,305.72917 1023.1867,292.8261 C 1023.1867,279.92303 1028.5793,268.27594 1037.2282,260.00456 L 1031.3757,255.94281 z M 1105.8411,255.94281 L 1099.9886,260.00456 C 1108.6375,268.27594 1114.0301,279.92303 1114.0301,292.8261 C 1114.0301,305.72917 1108.6375,317.37627 1099.9886,325.64765 L 1105.8411,329.70939 C 1115.225,320.23741 1121.018,307.20252 1121.018,292.8261 C 1121.018,278.44969 1115.225,265.41479 1105.8411,255.94281 z M 1043.1024,264.08814 C 1035.1784,271.13002 1030.1747,281.39946 1030.1747,292.8261 C 1030.1747,304.25275 1035.1784,314.52218 1043.1024,321.56406 L 1049.0421,317.4368 C 1041.8055,311.67401 1037.1626,302.78902 1037.1626,292.8261 C 1037.1626,282.86319 1041.8055,273.97819 1049.0421,268.2154 L 1043.1024,264.08814 z M 1094.1144,264.08814 L 1088.1747,268.2154 C 1095.4113,273.97819 1100.0542,282.86319 1100.0542,292.8261 C 1100.0542,302.78902 1095.4113,311.67401 1088.1747,317.4368 L 1094.1144,321.56406 C 1102.0384,314.52218 1107.0421,304.25275 1107.0421,292.8261 C 1107.0421,281.39946 1102.0384,271.13002 1094.1144,264.08814 z M 1055.1129,272.43001 C 1048.51,276.81109 1044.1506,284.31381 1044.1506,292.8261 C 1044.1506,301.33839 1048.51,308.84112 1055.1129,313.22219 L 1061.5113,308.7892 C 1055.4026,306.0666 1051.1385,299.94214 1051.1385,292.8261 C 1051.1385,285.71007 1055.4026,279.58561 1061.5113,276.863 L 1055.1129,272.43001 z M 1082.1039,272.43001 L 1075.7055,276.863 C 1081.8142,279.58561 1086.0783,285.71007 1086.0783,292.8261 C 1086.0783,299.94214 1081.8142,306.0666 1075.7055,308.7892 L 1082.1039,313.22219 C 1088.7068,308.84112 1093.0662,301.33839 1093.0662,292.8261 C 1093.0662,284.31381 1088.7068,276.81109 1082.1039,272.43001 z M 1068.6084,282.34418 C 1062.8224,282.34418 1058.1265,287.04008 1058.1265,292.8261 C 1058.1265,298.61213 1062.8224,303.30803 1068.6084,303.30803 C 1074.3944,303.30803 1079.0903,298.61213 1079.0903,292.8261 C 1079.0903,287.04008 1074.3944,282.34418 1068.6084,282.34418 z"
         id="path7448"
         style="fill:#ffffff;fill-opacity:1;fill-rule:evenodd;stroke:none;stroke-width:1px;stroke-linecap:butt;stroke-linejoin:miter;marker:none;marker-start:none;marker-mid:none;marker-end:none;stroke-miterlimit:4;stroke-dasharray:none;stroke-dashoffset:0;stroke-opacity:1;visibility:visible;display:inline;overflow:visible;enable-background:accumulate" />
    </g>
  </g>
</svg>
